%TF.GenerationSoftware,KiCad,Pcbnew,5.1.10*%
%TF.CreationDate,2021-07-04T17:51:47+02:00*%
%TF.ProjectId,DRV5825P,44525635-3832-4355-902e-6b696361645f,V0.1*%
%TF.SameCoordinates,Original*%
%TF.FileFunction,Soldermask,Bot*%
%TF.FilePolarity,Negative*%
%FSLAX46Y46*%
G04 Gerber Fmt 4.6, Leading zero omitted, Abs format (unit mm)*
G04 Created by KiCad (PCBNEW 5.1.10) date 2021-07-04 17:51:47*
%MOMM*%
%LPD*%
G01*
G04 APERTURE LIST*
%ADD10C,6.400000*%
%ADD11O,3.600000X1.800000*%
%ADD12C,1.700000*%
G04 APERTURE END LIST*
D10*
%TO.C,H4*%
X202500000Y-130000000D03*
%TD*%
%TO.C,H3*%
X202500000Y-70000000D03*
%TD*%
%TO.C,H2*%
X147500000Y-130000000D03*
%TD*%
%TO.C,H1*%
X147500000Y-70000000D03*
%TD*%
D11*
%TO.C,OUT_B*%
X202000000Y-117500000D03*
G36*
G01*
X200450000Y-113100000D02*
X203550000Y-113100000D01*
G75*
G02*
X203800000Y-113350000I0J-250000D01*
G01*
X203800000Y-114650000D01*
G75*
G02*
X203550000Y-114900000I-250000J0D01*
G01*
X200450000Y-114900000D01*
G75*
G02*
X200200000Y-114650000I0J250000D01*
G01*
X200200000Y-113350000D01*
G75*
G02*
X200450000Y-113100000I250000J0D01*
G01*
G37*
%TD*%
%TO.C,OUT_A*%
X202000000Y-102000000D03*
G36*
G01*
X200450000Y-97600000D02*
X203550000Y-97600000D01*
G75*
G02*
X203800000Y-97850000I0J-250000D01*
G01*
X203800000Y-99150000D01*
G75*
G02*
X203550000Y-99400000I-250000J0D01*
G01*
X200450000Y-99400000D01*
G75*
G02*
X200200000Y-99150000I0J250000D01*
G01*
X200200000Y-97850000D01*
G75*
G02*
X200450000Y-97600000I250000J0D01*
G01*
G37*
%TD*%
D12*
%TO.C,Data_CTL_I/O*%
X149790000Y-115470000D03*
X149790000Y-112930000D03*
X149790000Y-110390000D03*
X149790000Y-107850000D03*
X149790000Y-105310000D03*
X149790000Y-102770000D03*
X149790000Y-100230000D03*
X149790000Y-97690000D03*
X147250000Y-115470000D03*
X147250000Y-112930000D03*
X147250000Y-110390000D03*
X147250000Y-107850000D03*
X147250000Y-105310000D03*
X147250000Y-102770000D03*
X147250000Y-100230000D03*
G36*
G01*
X146400000Y-98290000D02*
X146400000Y-97090000D01*
G75*
G02*
X146650000Y-96840000I250000J0D01*
G01*
X147850000Y-96840000D01*
G75*
G02*
X148100000Y-97090000I0J-250000D01*
G01*
X148100000Y-98290000D01*
G75*
G02*
X147850000Y-98540000I-250000J0D01*
G01*
X146650000Y-98540000D01*
G75*
G02*
X146400000Y-98290000I0J250000D01*
G01*
G37*
%TD*%
D11*
%TO.C,Pwr_IN*%
X148500000Y-78000000D03*
G36*
G01*
X150050000Y-82400000D02*
X146950000Y-82400000D01*
G75*
G02*
X146700000Y-82150000I0J250000D01*
G01*
X146700000Y-80850000D01*
G75*
G02*
X146950000Y-80600000I250000J0D01*
G01*
X150050000Y-80600000D01*
G75*
G02*
X150300000Y-80850000I0J-250000D01*
G01*
X150300000Y-82150000D01*
G75*
G02*
X150050000Y-82400000I-250000J0D01*
G01*
G37*
%TD*%
M02*
