M48
; DRILL file {KiCad 5.1.10} date Sun Jul  4 17:52:03 2021
; FORMAT={-:-/ absolute / inch / decimal}
; #@! TF.CreationDate,2021-07-04T17:52:03+02:00
; #@! TF.GenerationSoftware,Kicad,Pcbnew,5.1.10
; #@! TF.FileFunction,Plated,1,2,PTH
FMAT,2
INCH
T1C0.0157
T2C0.0394
T3C0.0472
T4C0.1260
%
G90
G05
T1
X6.0591Y-4.2992
X6.0827Y-4.0472
X6.0866Y-2.7087
X6.0866Y-2.9843
X6.0866Y-3.2598
X6.0866Y-3.5354
X6.0866Y-4.6378
X6.0866Y-4.9134
X6.0866Y-5.189
X6.2303Y-4.1535
X6.2874Y-3.7638
X6.3091Y-4.3701
X6.3504Y-4.4606
X6.3622Y-2.7087
X6.3622Y-2.9843
X6.3622Y-3.2598
X6.3622Y-3.5354
X6.3622Y-4.6378
X6.3622Y-4.9134
X6.3622Y-5.189
X6.378Y-3.9685
X6.4409Y-3.6142
X6.4803Y-3.6142
X6.4921Y-4.7323
X6.5197Y-3.6142
X6.5276Y-4.7323
X6.5591Y-3.6142
X6.563Y-4.7323
X6.6378Y-2.7087
X6.6378Y-2.9843
X6.6378Y-3.2598
X6.6378Y-3.5354
X6.6378Y-3.811
X6.6378Y-4.6378
X6.6378Y-4.9134
X6.6378Y-5.189
X6.6575Y-4.0315
X6.7205Y-4.5394
X6.7205Y-4.5787
X6.7717Y-3.3661
X6.7717Y-3.4055
X6.7717Y-3.4449
X6.7717Y-3.7992
X6.7717Y-4.7244
X6.7717Y-4.9016
X6.7717Y-4.9409
X6.7717Y-4.9803
X6.811Y-3.3661
X6.811Y-3.4055
X6.811Y-3.4449
X6.811Y-3.7992
X6.811Y-4.7244
X6.811Y-4.9016
X6.811Y-4.9409
X6.811Y-4.9803
X6.8307Y-4.2205
X6.8504Y-3.3661
X6.8504Y-3.4055
X6.8504Y-3.4449
X6.8504Y-3.7992
X6.8504Y-4.7244
X6.8504Y-4.9016
X6.8504Y-4.9409
X6.8504Y-4.9803
X6.8898Y-3.3661
X6.8898Y-3.4055
X6.8898Y-3.4449
X6.8898Y-3.7992
X6.8898Y-4.7244
X6.8898Y-4.9016
X6.8898Y-4.9409
X6.8898Y-4.9803
X6.9055Y-4.2874
X6.9134Y-2.7087
X6.9134Y-5.189
X7.189Y-2.7087
X7.189Y-2.9843
X7.189Y-3.2598
X7.189Y-3.5354
X7.189Y-4.9134
X7.189Y-5.189
X7.4646Y-2.7087
X7.4646Y-2.9843
X7.4646Y-3.2598
X7.4646Y-3.5354
X7.4646Y-4.9134
X7.4646Y-5.189
X7.7402Y-2.7087
X7.7402Y-2.9843
X7.7402Y-3.2598
X7.7402Y-3.5354
X7.7402Y-4.9134
X7.7402Y-5.189
X8.0157Y-2.9843
X8.0157Y-3.2598
X8.0157Y-3.5354
X8.0157Y-4.6378
X8.0157Y-4.9134
X8.1181Y-4.185
X8.1181Y-4.3701
X8.1181Y-4.6181
X8.122Y-3.7913
X8.122Y-4.0
T2
X5.7972Y-3.8461
X5.7972Y-3.9461
X5.7972Y-4.0461
X5.7972Y-4.1461
X5.7972Y-4.2461
X5.7972Y-4.3461
X5.7972Y-4.4461
X5.7972Y-4.5461
X5.8972Y-3.8461
X5.8972Y-3.9461
X5.8972Y-4.0461
X5.8972Y-4.1461
X5.8972Y-4.2461
X5.8972Y-4.3461
X5.8972Y-4.4461
X5.8972Y-4.5461
T3
X5.8465Y-3.0709
X5.8465Y-3.2087
X7.9528Y-3.878
X7.9528Y-4.0157
X7.9528Y-4.4882
X7.9528Y-4.626
T4
X5.8071Y-2.7559
X5.8071Y-5.1181
X7.9724Y-2.7559
X7.9724Y-5.1181
T0
M30
