%TF.GenerationSoftware,KiCad,Pcbnew,5.1.10*%
%TF.CreationDate,2021-07-04T17:51:47+02:00*%
%TF.ProjectId,DRV5825P,44525635-3832-4355-902e-6b696361645f,V0.1*%
%TF.SameCoordinates,Original*%
%TF.FileFunction,Copper,L2,Bot*%
%TF.FilePolarity,Positive*%
%FSLAX46Y46*%
G04 Gerber Fmt 4.6, Leading zero omitted, Abs format (unit mm)*
G04 Created by KiCad (PCBNEW 5.1.10) date 2021-07-04 17:51:47*
%MOMM*%
%LPD*%
G01*
G04 APERTURE LIST*
%TA.AperFunction,ComponentPad*%
%ADD10C,6.400000*%
%TD*%
%TA.AperFunction,ComponentPad*%
%ADD11O,3.600000X1.800000*%
%TD*%
%TA.AperFunction,ComponentPad*%
%ADD12C,1.700000*%
%TD*%
%TA.AperFunction,ViaPad*%
%ADD13C,0.800000*%
%TD*%
%TA.AperFunction,Conductor*%
%ADD14C,0.500000*%
%TD*%
%TA.AperFunction,Conductor*%
%ADD15C,0.400000*%
%TD*%
%TA.AperFunction,Conductor*%
%ADD16C,0.250000*%
%TD*%
%TA.AperFunction,Conductor*%
%ADD17C,0.100000*%
%TD*%
%TA.AperFunction,Conductor*%
%ADD18C,0.254000*%
%TD*%
%TA.AperFunction,Conductor*%
%ADD19C,0.025400*%
%TD*%
G04 APERTURE END LIST*
D10*
%TO.P,H4,1*%
%TO.N,N/C*%
X202500000Y-130000000D03*
%TD*%
%TO.P,H3,1*%
%TO.N,N/C*%
X202500000Y-70000000D03*
%TD*%
%TO.P,H2,1*%
%TO.N,N/C*%
X147500000Y-130000000D03*
%TD*%
%TO.P,H1,1*%
%TO.N,N/C*%
X147500000Y-70000000D03*
%TD*%
D11*
%TO.P,OUT_B,2*%
%TO.N,Net-(C22-Pad1)*%
X202000000Y-117500000D03*
%TO.P,OUT_B,1*%
%TO.N,Net-(C21-Pad1)*%
%TA.AperFunction,ComponentPad*%
G36*
G01*
X200450000Y-113100000D02*
X203550000Y-113100000D01*
G75*
G02*
X203800000Y-113350000I0J-250000D01*
G01*
X203800000Y-114650000D01*
G75*
G02*
X203550000Y-114900000I-250000J0D01*
G01*
X200450000Y-114900000D01*
G75*
G02*
X200200000Y-114650000I0J250000D01*
G01*
X200200000Y-113350000D01*
G75*
G02*
X200450000Y-113100000I250000J0D01*
G01*
G37*
%TD.AperFunction*%
%TD*%
%TO.P,OUT_A,2*%
%TO.N,Net-(C20-Pad1)*%
X202000000Y-102000000D03*
%TO.P,OUT_A,1*%
%TO.N,Net-(C19-Pad1)*%
%TA.AperFunction,ComponentPad*%
G36*
G01*
X200450000Y-97600000D02*
X203550000Y-97600000D01*
G75*
G02*
X203800000Y-97850000I0J-250000D01*
G01*
X203800000Y-99150000D01*
G75*
G02*
X203550000Y-99400000I-250000J0D01*
G01*
X200450000Y-99400000D01*
G75*
G02*
X200200000Y-99150000I0J250000D01*
G01*
X200200000Y-97850000D01*
G75*
G02*
X200450000Y-97600000I250000J0D01*
G01*
G37*
%TD.AperFunction*%
%TD*%
D12*
%TO.P,Data_CTL_I/O,16*%
%TO.N,Net-(J2-Pad16)*%
X149790000Y-115470000D03*
%TO.P,Data_CTL_I/O,14*%
%TO.N,Net-(J2-Pad14)*%
X149790000Y-112930000D03*
%TO.P,Data_CTL_I/O,12*%
%TO.N,Net-(J2-Pad12)*%
X149790000Y-110390000D03*
%TO.P,Data_CTL_I/O,10*%
%TO.N,Net-(J2-Pad10)*%
X149790000Y-107850000D03*
%TO.P,Data_CTL_I/O,8*%
%TO.N,Net-(J2-Pad8)*%
X149790000Y-105310000D03*
%TO.P,Data_CTL_I/O,6*%
%TO.N,Net-(J2-Pad6)*%
X149790000Y-102770000D03*
%TO.P,Data_CTL_I/O,4*%
%TO.N,Net-(J2-Pad4)*%
X149790000Y-100230000D03*
%TO.P,Data_CTL_I/O,2*%
%TO.N,Net-(J2-Pad2)*%
X149790000Y-97690000D03*
%TO.P,Data_CTL_I/O,15*%
%TO.N,Net-(J2-Pad15)*%
X147250000Y-115470000D03*
%TO.P,Data_CTL_I/O,13*%
%TO.N,GND*%
X147250000Y-112930000D03*
%TO.P,Data_CTL_I/O,11*%
X147250000Y-110390000D03*
%TO.P,Data_CTL_I/O,9*%
X147250000Y-107850000D03*
%TO.P,Data_CTL_I/O,7*%
X147250000Y-105310000D03*
%TO.P,Data_CTL_I/O,5*%
%TO.N,VDD*%
X147250000Y-102770000D03*
%TO.P,Data_CTL_I/O,3*%
X147250000Y-100230000D03*
%TO.P,Data_CTL_I/O,1*%
%TA.AperFunction,ComponentPad*%
G36*
G01*
X146400000Y-98290000D02*
X146400000Y-97090000D01*
G75*
G02*
X146650000Y-96840000I250000J0D01*
G01*
X147850000Y-96840000D01*
G75*
G02*
X148100000Y-97090000I0J-250000D01*
G01*
X148100000Y-98290000D01*
G75*
G02*
X147850000Y-98540000I-250000J0D01*
G01*
X146650000Y-98540000D01*
G75*
G02*
X146400000Y-98290000I0J250000D01*
G01*
G37*
%TD.AperFunction*%
%TD*%
D11*
%TO.P,Pwr_IN,2*%
%TO.N,Net-(F1-Pad2)*%
X148500000Y-78000000D03*
%TO.P,Pwr_IN,1*%
%TO.N,GND*%
%TA.AperFunction,ComponentPad*%
G36*
G01*
X150050000Y-82400000D02*
X146950000Y-82400000D01*
G75*
G02*
X146700000Y-82150000I0J250000D01*
G01*
X146700000Y-80850000D01*
G75*
G02*
X146950000Y-80600000I250000J0D01*
G01*
X150050000Y-80600000D01*
G75*
G02*
X150300000Y-80850000I0J-250000D01*
G01*
X150300000Y-82150000D01*
G75*
G02*
X150050000Y-82400000I-250000J0D01*
G01*
G37*
%TD.AperFunction*%
%TD*%
D13*
%TO.N,GND*%
X175400000Y-108900000D03*
X173500000Y-107200000D03*
X154600000Y-68800000D03*
X161600000Y-68800000D03*
X168600000Y-68800000D03*
X175600000Y-68800000D03*
X182600000Y-68800000D03*
X189600000Y-68800000D03*
X196600000Y-68800000D03*
X154600000Y-75800000D03*
X161600000Y-75800000D03*
X168600000Y-75800000D03*
X182600000Y-75800000D03*
X189600000Y-75800000D03*
X196600000Y-75800000D03*
X203600000Y-75800000D03*
X154600000Y-82800000D03*
X161600000Y-82800000D03*
X168600000Y-82800000D03*
X182600000Y-82800000D03*
X189600000Y-82800000D03*
X196600000Y-82800000D03*
X203600000Y-82800000D03*
X154600000Y-89800000D03*
X161600000Y-89800000D03*
X168600000Y-89800000D03*
X182600000Y-89800000D03*
X189600000Y-89800000D03*
X196600000Y-89800000D03*
X203600000Y-89800000D03*
X159700000Y-95600000D03*
X168600000Y-96800000D03*
X154500000Y-102800000D03*
X206200000Y-106300000D03*
X206300000Y-101600000D03*
X206300000Y-96300000D03*
X153900000Y-109200000D03*
X161300000Y-113300000D03*
X170700000Y-116300000D03*
X206200000Y-117300000D03*
X206200000Y-111000000D03*
X154600000Y-117800000D03*
X161600000Y-117800000D03*
X168600000Y-117800000D03*
X154600000Y-124800000D03*
X161600000Y-124800000D03*
X168600000Y-124800000D03*
X182600000Y-124800000D03*
X189600000Y-124800000D03*
X196600000Y-124800000D03*
X203600000Y-124800000D03*
X154600000Y-131800000D03*
X161600000Y-131800000D03*
X168600000Y-131800000D03*
X175600000Y-131800000D03*
X182600000Y-131800000D03*
X189600000Y-131800000D03*
X196600000Y-131800000D03*
X170700000Y-115300000D03*
X164900000Y-120200000D03*
X165800000Y-120200000D03*
X166700000Y-120200000D03*
X163600000Y-91800000D03*
X164600000Y-91800000D03*
X165600000Y-91800000D03*
X166600000Y-91800000D03*
%TO.N,VDD*%
X169100000Y-102400000D03*
X162000000Y-100800000D03*
%TO.N,Vdrive*%
X174000000Y-124500000D03*
X173000000Y-124500000D03*
X172000000Y-125500000D03*
X175000000Y-125500000D03*
X175000000Y-124500000D03*
X172000000Y-126500000D03*
X175000000Y-126500000D03*
X172000000Y-124500000D03*
X173000000Y-126500000D03*
X174000000Y-126500000D03*
X173000000Y-125500000D03*
X174000000Y-125500000D03*
X173000000Y-120000000D03*
X175000000Y-120000000D03*
X172000000Y-120000000D03*
X174000000Y-120000000D03*
X172000000Y-85500000D03*
X173000000Y-85500000D03*
X174000000Y-85500000D03*
X175000000Y-85500000D03*
X175000000Y-86500000D03*
X174000000Y-86500000D03*
X173000000Y-86500000D03*
X172000000Y-86500000D03*
X172000000Y-87500000D03*
X173000000Y-87500000D03*
X174000000Y-87500000D03*
X175000000Y-87500000D03*
X172000000Y-96500000D03*
X173000000Y-96500000D03*
X174000000Y-96500000D03*
X175000000Y-96500000D03*
%TO.N,Net-(C22-Pad1)*%
X203600000Y-117800000D03*
%TO.N,Net-(J2-Pad14)*%
X160250000Y-111000000D03*
X158250000Y-105500000D03*
%TD*%
D14*
%TO.N,VDD*%
X160091998Y-102400000D02*
X153091998Y-95400000D01*
X153091998Y-95400000D02*
X148200000Y-95400000D01*
X147250000Y-96350000D02*
X148200000Y-95400000D01*
X147250000Y-102770000D02*
X147250000Y-96350000D01*
X162000000Y-100800000D02*
X162000000Y-102400000D01*
X162000000Y-102400000D02*
X160091998Y-102400000D01*
X169100000Y-102400000D02*
X162000000Y-102400000D01*
D15*
%TO.N,Net-(J2-Pad14)*%
X151720000Y-111000000D02*
X149790000Y-112930000D01*
D16*
X160250000Y-111000000D02*
X151720000Y-111000000D01*
X160250000Y-107500000D02*
X160250000Y-111000000D01*
X158250000Y-105500000D02*
X160250000Y-107500000D01*
%TD*%
D17*
%TO.N,Vdrive*%
X183450000Y-126950000D02*
X171050000Y-126950000D01*
X171050000Y-124735981D01*
X181950000Y-124735981D01*
X181950000Y-124864019D01*
X181974979Y-124989598D01*
X182023978Y-125107890D01*
X182095112Y-125214351D01*
X182185649Y-125304888D01*
X182292110Y-125376022D01*
X182410402Y-125425021D01*
X182535981Y-125450000D01*
X182664019Y-125450000D01*
X182789598Y-125425021D01*
X182907890Y-125376022D01*
X183014351Y-125304888D01*
X183104888Y-125214351D01*
X183176022Y-125107890D01*
X183225021Y-124989598D01*
X183250000Y-124864019D01*
X183250000Y-124735981D01*
X183225021Y-124610402D01*
X183176022Y-124492110D01*
X183104888Y-124385649D01*
X183014351Y-124295112D01*
X182907890Y-124223978D01*
X182789598Y-124174979D01*
X182664019Y-124150000D01*
X182535981Y-124150000D01*
X182410402Y-124174979D01*
X182292110Y-124223978D01*
X182185649Y-124295112D01*
X182095112Y-124385649D01*
X182023978Y-124492110D01*
X181974979Y-124610402D01*
X181950000Y-124735981D01*
X171050000Y-124735981D01*
X171050000Y-118018315D01*
X176538169Y-111532297D01*
X176543737Y-111524230D01*
X176547623Y-111515232D01*
X176549680Y-111505648D01*
X176550000Y-111500000D01*
X176550000Y-104000000D01*
X176549039Y-103990245D01*
X176546194Y-103980866D01*
X176541573Y-103972221D01*
X176536858Y-103966214D01*
X171050000Y-97980551D01*
X171050000Y-89735981D01*
X181950000Y-89735981D01*
X181950000Y-89864019D01*
X181974979Y-89989598D01*
X182023978Y-90107890D01*
X182095112Y-90214351D01*
X182185649Y-90304888D01*
X182292110Y-90376022D01*
X182410402Y-90425021D01*
X182535981Y-90450000D01*
X182664019Y-90450000D01*
X182789598Y-90425021D01*
X182907890Y-90376022D01*
X183014351Y-90304888D01*
X183104888Y-90214351D01*
X183176022Y-90107890D01*
X183225021Y-89989598D01*
X183250000Y-89864019D01*
X183250000Y-89735981D01*
X183225021Y-89610402D01*
X183176022Y-89492110D01*
X183104888Y-89385649D01*
X183014351Y-89295112D01*
X182907890Y-89223978D01*
X182789598Y-89174979D01*
X182664019Y-89150000D01*
X182535981Y-89150000D01*
X182410402Y-89174979D01*
X182292110Y-89223978D01*
X182185649Y-89295112D01*
X182095112Y-89385649D01*
X182023978Y-89492110D01*
X181974979Y-89610402D01*
X181950000Y-89735981D01*
X171050000Y-89735981D01*
X171050000Y-84550000D01*
X183450000Y-84550000D01*
X183450000Y-126950000D01*
%TA.AperFunction,Conductor*%
G36*
X183450000Y-126950000D02*
G01*
X171050000Y-126950000D01*
X171050000Y-124735981D01*
X181950000Y-124735981D01*
X181950000Y-124864019D01*
X181974979Y-124989598D01*
X182023978Y-125107890D01*
X182095112Y-125214351D01*
X182185649Y-125304888D01*
X182292110Y-125376022D01*
X182410402Y-125425021D01*
X182535981Y-125450000D01*
X182664019Y-125450000D01*
X182789598Y-125425021D01*
X182907890Y-125376022D01*
X183014351Y-125304888D01*
X183104888Y-125214351D01*
X183176022Y-125107890D01*
X183225021Y-124989598D01*
X183250000Y-124864019D01*
X183250000Y-124735981D01*
X183225021Y-124610402D01*
X183176022Y-124492110D01*
X183104888Y-124385649D01*
X183014351Y-124295112D01*
X182907890Y-124223978D01*
X182789598Y-124174979D01*
X182664019Y-124150000D01*
X182535981Y-124150000D01*
X182410402Y-124174979D01*
X182292110Y-124223978D01*
X182185649Y-124295112D01*
X182095112Y-124385649D01*
X182023978Y-124492110D01*
X181974979Y-124610402D01*
X181950000Y-124735981D01*
X171050000Y-124735981D01*
X171050000Y-118018315D01*
X176538169Y-111532297D01*
X176543737Y-111524230D01*
X176547623Y-111515232D01*
X176549680Y-111505648D01*
X176550000Y-111500000D01*
X176550000Y-104000000D01*
X176549039Y-103990245D01*
X176546194Y-103980866D01*
X176541573Y-103972221D01*
X176536858Y-103966214D01*
X171050000Y-97980551D01*
X171050000Y-89735981D01*
X181950000Y-89735981D01*
X181950000Y-89864019D01*
X181974979Y-89989598D01*
X182023978Y-90107890D01*
X182095112Y-90214351D01*
X182185649Y-90304888D01*
X182292110Y-90376022D01*
X182410402Y-90425021D01*
X182535981Y-90450000D01*
X182664019Y-90450000D01*
X182789598Y-90425021D01*
X182907890Y-90376022D01*
X183014351Y-90304888D01*
X183104888Y-90214351D01*
X183176022Y-90107890D01*
X183225021Y-89989598D01*
X183250000Y-89864019D01*
X183250000Y-89735981D01*
X183225021Y-89610402D01*
X183176022Y-89492110D01*
X183104888Y-89385649D01*
X183014351Y-89295112D01*
X182907890Y-89223978D01*
X182789598Y-89174979D01*
X182664019Y-89150000D01*
X182535981Y-89150000D01*
X182410402Y-89174979D01*
X182292110Y-89223978D01*
X182185649Y-89295112D01*
X182095112Y-89385649D01*
X182023978Y-89492110D01*
X181974979Y-89610402D01*
X181950000Y-89735981D01*
X171050000Y-89735981D01*
X171050000Y-84550000D01*
X183450000Y-84550000D01*
X183450000Y-126950000D01*
G37*
%TD.AperFunction*%
%TD*%
D18*
%TO.N,GND*%
X207094001Y-134594000D02*
X142906000Y-134594000D01*
X142906000Y-129647302D01*
X143919000Y-129647302D01*
X143919000Y-130352698D01*
X144056616Y-131044539D01*
X144326559Y-131696240D01*
X144718456Y-132282754D01*
X145217246Y-132781544D01*
X145803760Y-133173441D01*
X146455461Y-133443384D01*
X147147302Y-133581000D01*
X147852698Y-133581000D01*
X148544539Y-133443384D01*
X149196240Y-133173441D01*
X149782754Y-132781544D01*
X150281544Y-132282754D01*
X150673441Y-131696240D01*
X150943384Y-131044539D01*
X151081000Y-130352698D01*
X151081000Y-129647302D01*
X198919000Y-129647302D01*
X198919000Y-130352698D01*
X199056616Y-131044539D01*
X199326559Y-131696240D01*
X199718456Y-132282754D01*
X200217246Y-132781544D01*
X200803760Y-133173441D01*
X201455461Y-133443384D01*
X202147302Y-133581000D01*
X202852698Y-133581000D01*
X203544539Y-133443384D01*
X204196240Y-133173441D01*
X204782754Y-132781544D01*
X205281544Y-132282754D01*
X205673441Y-131696240D01*
X205943384Y-131044539D01*
X206081000Y-130352698D01*
X206081000Y-129647302D01*
X205943384Y-128955461D01*
X205673441Y-128303760D01*
X205281544Y-127717246D01*
X204782754Y-127218456D01*
X204196240Y-126826559D01*
X203544539Y-126556616D01*
X202852698Y-126419000D01*
X202147302Y-126419000D01*
X201455461Y-126556616D01*
X200803760Y-126826559D01*
X200217246Y-127218456D01*
X199718456Y-127717246D01*
X199326559Y-128303760D01*
X199056616Y-128955461D01*
X198919000Y-129647302D01*
X151081000Y-129647302D01*
X150943384Y-128955461D01*
X150673441Y-128303760D01*
X150281544Y-127717246D01*
X149782754Y-127218456D01*
X149196240Y-126826559D01*
X148544539Y-126556616D01*
X147852698Y-126419000D01*
X147147302Y-126419000D01*
X146455461Y-126556616D01*
X145803760Y-126826559D01*
X145217246Y-127218456D01*
X144718456Y-127717246D01*
X144326559Y-128303760D01*
X144056616Y-128955461D01*
X143919000Y-129647302D01*
X142906000Y-129647302D01*
X142906000Y-115348757D01*
X146019000Y-115348757D01*
X146019000Y-115591243D01*
X146066307Y-115829069D01*
X146159102Y-116053097D01*
X146293820Y-116254717D01*
X146465283Y-116426180D01*
X146666903Y-116560898D01*
X146890931Y-116653693D01*
X147128757Y-116701000D01*
X147371243Y-116701000D01*
X147609069Y-116653693D01*
X147833097Y-116560898D01*
X148034717Y-116426180D01*
X148206180Y-116254717D01*
X148340898Y-116053097D01*
X148433693Y-115829069D01*
X148481000Y-115591243D01*
X148481000Y-115348757D01*
X148559000Y-115348757D01*
X148559000Y-115591243D01*
X148606307Y-115829069D01*
X148699102Y-116053097D01*
X148833820Y-116254717D01*
X149005283Y-116426180D01*
X149206903Y-116560898D01*
X149430931Y-116653693D01*
X149668757Y-116701000D01*
X149911243Y-116701000D01*
X150149069Y-116653693D01*
X150373097Y-116560898D01*
X150574717Y-116426180D01*
X150746180Y-116254717D01*
X150880898Y-116053097D01*
X150973693Y-115829069D01*
X151021000Y-115591243D01*
X151021000Y-115348757D01*
X150973693Y-115110931D01*
X150880898Y-114886903D01*
X150746180Y-114685283D01*
X150574717Y-114513820D01*
X150373097Y-114379102D01*
X150149069Y-114286307D01*
X149911243Y-114239000D01*
X149668757Y-114239000D01*
X149430931Y-114286307D01*
X149206903Y-114379102D01*
X149005283Y-114513820D01*
X148833820Y-114685283D01*
X148699102Y-114886903D01*
X148606307Y-115110931D01*
X148559000Y-115348757D01*
X148481000Y-115348757D01*
X148433693Y-115110931D01*
X148340898Y-114886903D01*
X148206180Y-114685283D01*
X148034717Y-114513820D01*
X147833097Y-114379102D01*
X147609069Y-114286307D01*
X147371243Y-114239000D01*
X147128757Y-114239000D01*
X146890931Y-114286307D01*
X146666903Y-114379102D01*
X146465283Y-114513820D01*
X146293820Y-114685283D01*
X146159102Y-114886903D01*
X146066307Y-115110931D01*
X146019000Y-115348757D01*
X142906000Y-115348757D01*
X142906000Y-110268757D01*
X148559000Y-110268757D01*
X148559000Y-110511243D01*
X148606307Y-110749069D01*
X148699102Y-110973097D01*
X148833820Y-111174717D01*
X149005283Y-111346180D01*
X149206903Y-111480898D01*
X149430931Y-111573693D01*
X149668757Y-111621000D01*
X149911243Y-111621000D01*
X150149069Y-111573693D01*
X150373097Y-111480898D01*
X150482363Y-111407889D01*
X150456004Y-111432064D01*
X150358810Y-111504114D01*
X150277732Y-111549882D01*
X150202785Y-111580110D01*
X150121070Y-111602610D01*
X150021670Y-111621861D01*
X149901580Y-111641424D01*
X149895847Y-111642403D01*
X149760209Y-111666630D01*
X149741689Y-111670414D01*
X149592343Y-111704811D01*
X149566486Y-111711731D01*
X149495173Y-111733528D01*
X149430931Y-111746307D01*
X149206903Y-111839102D01*
X149005283Y-111973820D01*
X148833820Y-112145283D01*
X148699102Y-112346903D01*
X148606307Y-112570931D01*
X148559000Y-112808757D01*
X148559000Y-113051243D01*
X148606307Y-113289069D01*
X148699102Y-113513097D01*
X148833820Y-113714717D01*
X149005283Y-113886180D01*
X149206903Y-114020898D01*
X149430931Y-114113693D01*
X149668757Y-114161000D01*
X149911243Y-114161000D01*
X150149069Y-114113693D01*
X150373097Y-114020898D01*
X150574717Y-113886180D01*
X150746180Y-113714717D01*
X150880898Y-113513097D01*
X150973693Y-113289069D01*
X150986474Y-113224814D01*
X151008268Y-113153511D01*
X151015188Y-113127656D01*
X151049585Y-112978310D01*
X151053369Y-112959790D01*
X151077596Y-112824152D01*
X151078575Y-112818419D01*
X151098138Y-112698329D01*
X151117389Y-112598929D01*
X151139889Y-112517214D01*
X151170117Y-112442267D01*
X151215885Y-112361189D01*
X151287935Y-112263995D01*
X151401663Y-112139994D01*
X152035658Y-111506000D01*
X159453122Y-111506000D01*
X159520091Y-111508418D01*
X159559500Y-111513303D01*
X159583080Y-111518781D01*
X159599460Y-111524609D01*
X159618321Y-111533649D01*
X159647096Y-111550303D01*
X159689659Y-111577199D01*
X159689746Y-111577254D01*
X159742500Y-111610570D01*
X159752779Y-111616836D01*
X159812563Y-111652000D01*
X159829776Y-111661535D01*
X159850242Y-111672191D01*
X159880058Y-111692113D01*
X160022191Y-111750987D01*
X160173078Y-111781000D01*
X160326922Y-111781000D01*
X160477809Y-111750987D01*
X160619942Y-111692113D01*
X160747859Y-111606642D01*
X160856642Y-111497859D01*
X160942113Y-111369942D01*
X161000987Y-111227809D01*
X161031000Y-111076922D01*
X161031000Y-110923078D01*
X161000987Y-110772191D01*
X160942113Y-110630058D01*
X160922191Y-110600242D01*
X160911535Y-110579776D01*
X160902000Y-110562563D01*
X160866836Y-110502779D01*
X160860570Y-110492500D01*
X160827254Y-110439746D01*
X160827199Y-110439659D01*
X160800303Y-110397096D01*
X160783649Y-110368321D01*
X160774609Y-110349460D01*
X160768781Y-110333080D01*
X160763303Y-110309500D01*
X160758418Y-110270091D01*
X160756000Y-110203122D01*
X160756000Y-107524845D01*
X160758447Y-107499999D01*
X160756000Y-107475153D01*
X160756000Y-107475146D01*
X160748678Y-107400807D01*
X160719745Y-107305425D01*
X160672759Y-107217521D01*
X160609527Y-107140473D01*
X160590220Y-107124628D01*
X159171282Y-105705691D01*
X159125629Y-105656617D01*
X159101216Y-105625295D01*
X159088418Y-105604751D01*
X159080953Y-105589042D01*
X159074008Y-105569311D01*
X159065441Y-105537202D01*
X159054363Y-105488084D01*
X159054338Y-105487971D01*
X159040592Y-105427111D01*
X159037758Y-105415425D01*
X159020350Y-105348286D01*
X159014919Y-105329366D01*
X159007983Y-105307363D01*
X159000987Y-105272191D01*
X158942113Y-105130058D01*
X158856642Y-105002141D01*
X158747859Y-104893358D01*
X158619942Y-104807887D01*
X158477809Y-104749013D01*
X158326922Y-104719000D01*
X158173078Y-104719000D01*
X158022191Y-104749013D01*
X157880058Y-104807887D01*
X157752141Y-104893358D01*
X157643358Y-105002141D01*
X157557887Y-105130058D01*
X157499013Y-105272191D01*
X157469000Y-105423078D01*
X157469000Y-105576922D01*
X157499013Y-105727809D01*
X157557887Y-105869942D01*
X157643358Y-105997859D01*
X157752141Y-106106642D01*
X157880058Y-106192113D01*
X158022191Y-106250987D01*
X158057363Y-106257983D01*
X158079366Y-106264919D01*
X158098286Y-106270350D01*
X158165425Y-106287758D01*
X158177111Y-106290592D01*
X158237971Y-106304338D01*
X158238084Y-106304363D01*
X158287202Y-106315441D01*
X158319311Y-106324008D01*
X158339042Y-106330953D01*
X158354751Y-106338418D01*
X158375295Y-106351216D01*
X158406617Y-106375629D01*
X158455691Y-106421282D01*
X159744000Y-107709592D01*
X159744001Y-110203094D01*
X159741581Y-110270090D01*
X159736696Y-110309500D01*
X159731218Y-110333080D01*
X159725390Y-110349460D01*
X159716350Y-110368321D01*
X159699696Y-110397096D01*
X159679328Y-110429328D01*
X159647096Y-110449696D01*
X159618321Y-110466350D01*
X159599460Y-110475390D01*
X159583080Y-110481218D01*
X159559500Y-110486696D01*
X159520090Y-110491581D01*
X159453115Y-110494000D01*
X152005845Y-110494000D01*
X151943414Y-110460629D01*
X151833895Y-110427407D01*
X151719999Y-110416189D01*
X151606104Y-110427407D01*
X151496585Y-110460629D01*
X151395652Y-110514580D01*
X151329351Y-110568991D01*
X150791598Y-111106745D01*
X150880898Y-110973097D01*
X150973693Y-110749069D01*
X151021000Y-110511243D01*
X151021000Y-110268757D01*
X150973693Y-110030931D01*
X150880898Y-109806903D01*
X150746180Y-109605283D01*
X150574717Y-109433820D01*
X150373097Y-109299102D01*
X150149069Y-109206307D01*
X149911243Y-109159000D01*
X149668757Y-109159000D01*
X149430931Y-109206307D01*
X149206903Y-109299102D01*
X149005283Y-109433820D01*
X148833820Y-109605283D01*
X148699102Y-109806903D01*
X148606307Y-110030931D01*
X148559000Y-110268757D01*
X142906000Y-110268757D01*
X142906000Y-107728757D01*
X148559000Y-107728757D01*
X148559000Y-107971243D01*
X148606307Y-108209069D01*
X148699102Y-108433097D01*
X148833820Y-108634717D01*
X149005283Y-108806180D01*
X149206903Y-108940898D01*
X149430931Y-109033693D01*
X149668757Y-109081000D01*
X149911243Y-109081000D01*
X150149069Y-109033693D01*
X150373097Y-108940898D01*
X150574717Y-108806180D01*
X150746180Y-108634717D01*
X150880898Y-108433097D01*
X150973693Y-108209069D01*
X151021000Y-107971243D01*
X151021000Y-107728757D01*
X150973693Y-107490931D01*
X150880898Y-107266903D01*
X150746180Y-107065283D01*
X150574717Y-106893820D01*
X150373097Y-106759102D01*
X150149069Y-106666307D01*
X149911243Y-106619000D01*
X149668757Y-106619000D01*
X149430931Y-106666307D01*
X149206903Y-106759102D01*
X149005283Y-106893820D01*
X148833820Y-107065283D01*
X148699102Y-107266903D01*
X148606307Y-107490931D01*
X148559000Y-107728757D01*
X142906000Y-107728757D01*
X142906000Y-105188757D01*
X148559000Y-105188757D01*
X148559000Y-105431243D01*
X148606307Y-105669069D01*
X148699102Y-105893097D01*
X148833820Y-106094717D01*
X149005283Y-106266180D01*
X149206903Y-106400898D01*
X149430931Y-106493693D01*
X149668757Y-106541000D01*
X149911243Y-106541000D01*
X150149069Y-106493693D01*
X150373097Y-106400898D01*
X150574717Y-106266180D01*
X150746180Y-106094717D01*
X150880898Y-105893097D01*
X150973693Y-105669069D01*
X151021000Y-105431243D01*
X151021000Y-105188757D01*
X150973693Y-104950931D01*
X150880898Y-104726903D01*
X150746180Y-104525283D01*
X150574717Y-104353820D01*
X150373097Y-104219102D01*
X150149069Y-104126307D01*
X149911243Y-104079000D01*
X149668757Y-104079000D01*
X149430931Y-104126307D01*
X149206903Y-104219102D01*
X149005283Y-104353820D01*
X148833820Y-104525283D01*
X148699102Y-104726903D01*
X148606307Y-104950931D01*
X148559000Y-105188757D01*
X142906000Y-105188757D01*
X142906000Y-97090000D01*
X146017157Y-97090000D01*
X146017157Y-98290000D01*
X146029317Y-98413462D01*
X146065329Y-98532179D01*
X146123810Y-98641589D01*
X146202512Y-98737488D01*
X146298411Y-98816190D01*
X146407821Y-98874671D01*
X146526538Y-98910683D01*
X146619001Y-98919790D01*
X146619001Y-99171109D01*
X146465283Y-99273820D01*
X146293820Y-99445283D01*
X146159102Y-99646903D01*
X146066307Y-99870931D01*
X146019000Y-100108757D01*
X146019000Y-100351243D01*
X146066307Y-100589069D01*
X146159102Y-100813097D01*
X146293820Y-101014717D01*
X146465283Y-101186180D01*
X146607697Y-101281338D01*
X146596616Y-101367613D01*
X146573627Y-101463131D01*
X146544573Y-101541994D01*
X146507042Y-101617753D01*
X146457141Y-101701430D01*
X146393346Y-101799887D01*
X146392698Y-101800889D01*
X146319915Y-101913992D01*
X146312896Y-101925332D01*
X146236395Y-102053888D01*
X146226153Y-102072231D01*
X146191765Y-102138019D01*
X146159102Y-102186903D01*
X146066307Y-102410931D01*
X146019000Y-102648757D01*
X146019000Y-102891243D01*
X146066307Y-103129069D01*
X146159102Y-103353097D01*
X146293820Y-103554717D01*
X146465283Y-103726180D01*
X146666903Y-103860898D01*
X146890931Y-103953693D01*
X147128757Y-104001000D01*
X147371243Y-104001000D01*
X147609069Y-103953693D01*
X147833097Y-103860898D01*
X148034717Y-103726180D01*
X148206180Y-103554717D01*
X148340898Y-103353097D01*
X148433693Y-103129069D01*
X148481000Y-102891243D01*
X148481000Y-102648757D01*
X148559000Y-102648757D01*
X148559000Y-102891243D01*
X148606307Y-103129069D01*
X148699102Y-103353097D01*
X148833820Y-103554717D01*
X149005283Y-103726180D01*
X149206903Y-103860898D01*
X149430931Y-103953693D01*
X149668757Y-104001000D01*
X149911243Y-104001000D01*
X150149069Y-103953693D01*
X150373097Y-103860898D01*
X150574717Y-103726180D01*
X150746180Y-103554717D01*
X150880898Y-103353097D01*
X150973693Y-103129069D01*
X151021000Y-102891243D01*
X151021000Y-102648757D01*
X150973693Y-102410931D01*
X150880898Y-102186903D01*
X150746180Y-101985283D01*
X150574717Y-101813820D01*
X150373097Y-101679102D01*
X150149069Y-101586307D01*
X149911243Y-101539000D01*
X149668757Y-101539000D01*
X149430931Y-101586307D01*
X149206903Y-101679102D01*
X149005283Y-101813820D01*
X148833820Y-101985283D01*
X148699102Y-102186903D01*
X148606307Y-102410931D01*
X148559000Y-102648757D01*
X148481000Y-102648757D01*
X148433693Y-102410931D01*
X148340898Y-102186903D01*
X148308233Y-102138016D01*
X148273845Y-102072229D01*
X148263604Y-102053888D01*
X148187103Y-101925332D01*
X148180084Y-101913992D01*
X148107301Y-101800889D01*
X148106653Y-101799887D01*
X148042858Y-101701430D01*
X147992957Y-101617753D01*
X147955426Y-101541994D01*
X147926372Y-101463131D01*
X147903383Y-101367613D01*
X147892302Y-101281338D01*
X148034717Y-101186180D01*
X148206180Y-101014717D01*
X148340898Y-100813097D01*
X148433693Y-100589069D01*
X148481000Y-100351243D01*
X148481000Y-100108757D01*
X148559000Y-100108757D01*
X148559000Y-100351243D01*
X148606307Y-100589069D01*
X148699102Y-100813097D01*
X148833820Y-101014717D01*
X149005283Y-101186180D01*
X149206903Y-101320898D01*
X149430931Y-101413693D01*
X149668757Y-101461000D01*
X149911243Y-101461000D01*
X150149069Y-101413693D01*
X150373097Y-101320898D01*
X150574717Y-101186180D01*
X150746180Y-101014717D01*
X150880898Y-100813097D01*
X150973693Y-100589069D01*
X151021000Y-100351243D01*
X151021000Y-100108757D01*
X150973693Y-99870931D01*
X150880898Y-99646903D01*
X150746180Y-99445283D01*
X150574717Y-99273820D01*
X150373097Y-99139102D01*
X150149069Y-99046307D01*
X149911243Y-98999000D01*
X149668757Y-98999000D01*
X149430931Y-99046307D01*
X149206903Y-99139102D01*
X149005283Y-99273820D01*
X148833820Y-99445283D01*
X148699102Y-99646903D01*
X148606307Y-99870931D01*
X148559000Y-100108757D01*
X148481000Y-100108757D01*
X148433693Y-99870931D01*
X148340898Y-99646903D01*
X148206180Y-99445283D01*
X148034717Y-99273820D01*
X147881000Y-99171110D01*
X147881000Y-98919790D01*
X147973462Y-98910683D01*
X148092179Y-98874671D01*
X148201589Y-98816190D01*
X148297488Y-98737488D01*
X148376190Y-98641589D01*
X148434671Y-98532179D01*
X148470683Y-98413462D01*
X148482843Y-98290000D01*
X148482843Y-97568757D01*
X148559000Y-97568757D01*
X148559000Y-97811243D01*
X148606307Y-98049069D01*
X148699102Y-98273097D01*
X148833820Y-98474717D01*
X149005283Y-98646180D01*
X149206903Y-98780898D01*
X149430931Y-98873693D01*
X149668757Y-98921000D01*
X149911243Y-98921000D01*
X150149069Y-98873693D01*
X150373097Y-98780898D01*
X150574717Y-98646180D01*
X150746180Y-98474717D01*
X150880898Y-98273097D01*
X150973693Y-98049069D01*
X151021000Y-97811243D01*
X151021000Y-97568757D01*
X150973693Y-97330931D01*
X150880898Y-97106903D01*
X150746180Y-96905283D01*
X150574717Y-96733820D01*
X150373097Y-96599102D01*
X150149069Y-96506307D01*
X149911243Y-96459000D01*
X149668757Y-96459000D01*
X149430931Y-96506307D01*
X149206903Y-96599102D01*
X149005283Y-96733820D01*
X148833820Y-96905283D01*
X148699102Y-97106903D01*
X148606307Y-97330931D01*
X148559000Y-97568757D01*
X148482843Y-97568757D01*
X148482843Y-97090000D01*
X148470683Y-96966538D01*
X148434671Y-96847821D01*
X148376190Y-96738411D01*
X148297488Y-96642512D01*
X148201589Y-96563810D01*
X148092179Y-96505329D01*
X148011510Y-96480859D01*
X148461369Y-96031000D01*
X152830630Y-96031000D01*
X159623897Y-102824268D01*
X159643655Y-102848343D01*
X159667730Y-102868101D01*
X159667732Y-102868103D01*
X159698920Y-102893698D01*
X159739737Y-102927196D01*
X159849356Y-102985789D01*
X159968300Y-103021870D01*
X160061000Y-103031000D01*
X160061007Y-103031000D01*
X160091998Y-103034052D01*
X160122988Y-103031000D01*
X161969002Y-103031000D01*
X162000000Y-103034053D01*
X162030998Y-103031000D01*
X168309263Y-103031000D01*
X168393132Y-103031365D01*
X168462159Y-103032682D01*
X168517445Y-103035156D01*
X168560571Y-103038768D01*
X168593860Y-103043330D01*
X168621134Y-103048865D01*
X168647154Y-103056051D01*
X168676743Y-103066375D01*
X168713616Y-103081619D01*
X168716030Y-103082740D01*
X168730058Y-103092113D01*
X168872191Y-103150987D01*
X169023078Y-103181000D01*
X169176922Y-103181000D01*
X169327809Y-103150987D01*
X169469942Y-103092113D01*
X169597859Y-103006642D01*
X169706642Y-102897859D01*
X169792113Y-102769942D01*
X169850987Y-102627809D01*
X169881000Y-102476922D01*
X169881000Y-102323078D01*
X169850987Y-102172191D01*
X169792113Y-102030058D01*
X169706642Y-101902141D01*
X169597859Y-101793358D01*
X169469942Y-101707887D01*
X169327809Y-101649013D01*
X169176922Y-101619000D01*
X169023078Y-101619000D01*
X168872191Y-101649013D01*
X168730058Y-101707887D01*
X168716034Y-101717258D01*
X168713625Y-101718376D01*
X168676743Y-101733624D01*
X168647154Y-101743948D01*
X168621134Y-101751134D01*
X168593860Y-101756669D01*
X168560571Y-101761231D01*
X168517445Y-101764843D01*
X168462159Y-101767317D01*
X168393131Y-101768634D01*
X168309257Y-101769000D01*
X162631000Y-101769000D01*
X162631000Y-101590737D01*
X162631365Y-101506867D01*
X162632682Y-101437840D01*
X162635156Y-101382554D01*
X162638768Y-101339428D01*
X162643330Y-101306139D01*
X162648865Y-101278865D01*
X162656051Y-101252845D01*
X162666375Y-101223256D01*
X162681616Y-101186392D01*
X162682742Y-101183967D01*
X162692113Y-101169942D01*
X162750987Y-101027809D01*
X162781000Y-100876922D01*
X162781000Y-100723078D01*
X162750987Y-100572191D01*
X162692113Y-100430058D01*
X162606642Y-100302141D01*
X162497859Y-100193358D01*
X162369942Y-100107887D01*
X162227809Y-100049013D01*
X162076922Y-100019000D01*
X161923078Y-100019000D01*
X161772191Y-100049013D01*
X161630058Y-100107887D01*
X161502141Y-100193358D01*
X161393358Y-100302141D01*
X161307887Y-100430058D01*
X161249013Y-100572191D01*
X161219000Y-100723078D01*
X161219000Y-100876922D01*
X161249013Y-101027809D01*
X161307887Y-101169942D01*
X161317258Y-101183967D01*
X161318380Y-101186383D01*
X161333624Y-101223256D01*
X161343948Y-101252845D01*
X161351134Y-101278865D01*
X161356669Y-101306139D01*
X161361231Y-101339428D01*
X161364843Y-101382554D01*
X161367317Y-101437840D01*
X161368634Y-101506868D01*
X161369000Y-101590857D01*
X161369001Y-101769000D01*
X160353367Y-101769000D01*
X153560103Y-94975737D01*
X153540341Y-94951657D01*
X153444259Y-94872804D01*
X153334640Y-94814211D01*
X153215696Y-94778130D01*
X153122996Y-94769000D01*
X153122988Y-94769000D01*
X153091998Y-94765948D01*
X153061008Y-94769000D01*
X148230990Y-94769000D01*
X148200000Y-94765948D01*
X148169009Y-94769000D01*
X148169002Y-94769000D01*
X148076302Y-94778130D01*
X147957358Y-94814211D01*
X147847739Y-94872804D01*
X147751657Y-94951657D01*
X147731899Y-94975732D01*
X146825733Y-95881899D01*
X146801658Y-95901657D01*
X146781900Y-95925732D01*
X146781897Y-95925735D01*
X146722804Y-95997740D01*
X146664211Y-96107359D01*
X146628130Y-96226303D01*
X146615948Y-96350000D01*
X146619001Y-96381000D01*
X146619001Y-96460210D01*
X146526538Y-96469317D01*
X146407821Y-96505329D01*
X146298411Y-96563810D01*
X146202512Y-96642512D01*
X146123810Y-96738411D01*
X146065329Y-96847821D01*
X146029317Y-96966538D01*
X146017157Y-97090000D01*
X142906000Y-97090000D01*
X142906000Y-84500000D01*
X170619000Y-84500000D01*
X170619000Y-98000000D01*
X170623445Y-98058028D01*
X170642001Y-98130375D01*
X170674315Y-98197712D01*
X170719144Y-98257451D01*
X176119000Y-104148203D01*
X176119000Y-111360437D01*
X170709150Y-117753896D01*
X170683210Y-117788328D01*
X170648002Y-117854198D01*
X170626321Y-117925671D01*
X170619000Y-118000000D01*
X170619000Y-127000000D01*
X170626321Y-127074329D01*
X170648002Y-127145802D01*
X170683210Y-127211672D01*
X170730592Y-127269408D01*
X170788328Y-127316790D01*
X170854198Y-127351998D01*
X170925671Y-127373679D01*
X171000000Y-127381000D01*
X183500000Y-127381000D01*
X183574329Y-127373679D01*
X183645802Y-127351998D01*
X183711672Y-127316790D01*
X183769408Y-127269408D01*
X183816790Y-127211672D01*
X183851998Y-127145802D01*
X183873679Y-127074329D01*
X183881000Y-127000000D01*
X183881000Y-117500000D01*
X199812802Y-117500000D01*
X199837535Y-117751120D01*
X199910784Y-117992589D01*
X200029734Y-118215129D01*
X200189814Y-118410186D01*
X200384871Y-118570266D01*
X200607411Y-118689216D01*
X200848880Y-118762465D01*
X201037070Y-118781000D01*
X202962930Y-118781000D01*
X203151120Y-118762465D01*
X203392589Y-118689216D01*
X203595047Y-118581000D01*
X203676922Y-118581000D01*
X203827809Y-118550987D01*
X203969942Y-118492113D01*
X204097859Y-118406642D01*
X204206642Y-118297859D01*
X204292113Y-118169942D01*
X204350987Y-118027809D01*
X204381000Y-117876922D01*
X204381000Y-117723078D01*
X204350987Y-117572191D01*
X204292113Y-117430058D01*
X204206642Y-117302141D01*
X204163457Y-117258956D01*
X204162465Y-117248880D01*
X204089216Y-117007411D01*
X203970266Y-116784871D01*
X203810186Y-116589814D01*
X203615129Y-116429734D01*
X203392589Y-116310784D01*
X203151120Y-116237535D01*
X202962930Y-116219000D01*
X201037070Y-116219000D01*
X200848880Y-116237535D01*
X200607411Y-116310784D01*
X200384871Y-116429734D01*
X200189814Y-116589814D01*
X200029734Y-116784871D01*
X199910784Y-117007411D01*
X199837535Y-117248880D01*
X199812802Y-117500000D01*
X183881000Y-117500000D01*
X183881000Y-113350000D01*
X199817157Y-113350000D01*
X199817157Y-114650000D01*
X199829317Y-114773462D01*
X199865329Y-114892179D01*
X199923810Y-115001589D01*
X200002512Y-115097488D01*
X200098411Y-115176190D01*
X200207821Y-115234671D01*
X200326538Y-115270683D01*
X200450000Y-115282843D01*
X203550000Y-115282843D01*
X203673462Y-115270683D01*
X203792179Y-115234671D01*
X203901589Y-115176190D01*
X203997488Y-115097488D01*
X204076190Y-115001589D01*
X204134671Y-114892179D01*
X204170683Y-114773462D01*
X204182843Y-114650000D01*
X204182843Y-113350000D01*
X204170683Y-113226538D01*
X204134671Y-113107821D01*
X204076190Y-112998411D01*
X203997488Y-112902512D01*
X203901589Y-112823810D01*
X203792179Y-112765329D01*
X203673462Y-112729317D01*
X203550000Y-112717157D01*
X200450000Y-112717157D01*
X200326538Y-112729317D01*
X200207821Y-112765329D01*
X200098411Y-112823810D01*
X200002512Y-112902512D01*
X199923810Y-112998411D01*
X199865329Y-113107821D01*
X199829317Y-113226538D01*
X199817157Y-113350000D01*
X183881000Y-113350000D01*
X183881000Y-102000000D01*
X199812802Y-102000000D01*
X199837535Y-102251120D01*
X199910784Y-102492589D01*
X200029734Y-102715129D01*
X200189814Y-102910186D01*
X200384871Y-103070266D01*
X200607411Y-103189216D01*
X200848880Y-103262465D01*
X201037070Y-103281000D01*
X202962930Y-103281000D01*
X203151120Y-103262465D01*
X203392589Y-103189216D01*
X203615129Y-103070266D01*
X203810186Y-102910186D01*
X203970266Y-102715129D01*
X204089216Y-102492589D01*
X204162465Y-102251120D01*
X204187198Y-102000000D01*
X204162465Y-101748880D01*
X204089216Y-101507411D01*
X203970266Y-101284871D01*
X203810186Y-101089814D01*
X203615129Y-100929734D01*
X203392589Y-100810784D01*
X203151120Y-100737535D01*
X202962930Y-100719000D01*
X201037070Y-100719000D01*
X200848880Y-100737535D01*
X200607411Y-100810784D01*
X200384871Y-100929734D01*
X200189814Y-101089814D01*
X200029734Y-101284871D01*
X199910784Y-101507411D01*
X199837535Y-101748880D01*
X199812802Y-102000000D01*
X183881000Y-102000000D01*
X183881000Y-97850000D01*
X199817157Y-97850000D01*
X199817157Y-99150000D01*
X199829317Y-99273462D01*
X199865329Y-99392179D01*
X199923810Y-99501589D01*
X200002512Y-99597488D01*
X200098411Y-99676190D01*
X200207821Y-99734671D01*
X200326538Y-99770683D01*
X200450000Y-99782843D01*
X203550000Y-99782843D01*
X203673462Y-99770683D01*
X203792179Y-99734671D01*
X203901589Y-99676190D01*
X203997488Y-99597488D01*
X204076190Y-99501589D01*
X204134671Y-99392179D01*
X204170683Y-99273462D01*
X204182843Y-99150000D01*
X204182843Y-97850000D01*
X204170683Y-97726538D01*
X204134671Y-97607821D01*
X204076190Y-97498411D01*
X203997488Y-97402512D01*
X203901589Y-97323810D01*
X203792179Y-97265329D01*
X203673462Y-97229317D01*
X203550000Y-97217157D01*
X200450000Y-97217157D01*
X200326538Y-97229317D01*
X200207821Y-97265329D01*
X200098411Y-97323810D01*
X200002512Y-97402512D01*
X199923810Y-97498411D01*
X199865329Y-97607821D01*
X199829317Y-97726538D01*
X199817157Y-97850000D01*
X183881000Y-97850000D01*
X183881000Y-84500000D01*
X183873679Y-84425671D01*
X183851998Y-84354198D01*
X183816790Y-84288328D01*
X183769408Y-84230592D01*
X183711672Y-84183210D01*
X183645802Y-84148002D01*
X183574329Y-84126321D01*
X183500000Y-84119000D01*
X171000000Y-84119000D01*
X170925671Y-84126321D01*
X170854198Y-84148002D01*
X170788328Y-84183210D01*
X170730592Y-84230592D01*
X170683210Y-84288328D01*
X170648002Y-84354198D01*
X170626321Y-84425671D01*
X170619000Y-84500000D01*
X142906000Y-84500000D01*
X142906000Y-78000000D01*
X146312802Y-78000000D01*
X146337535Y-78251120D01*
X146410784Y-78492589D01*
X146529734Y-78715129D01*
X146689814Y-78910186D01*
X146884871Y-79070266D01*
X147107411Y-79189216D01*
X147348880Y-79262465D01*
X147537070Y-79281000D01*
X149462930Y-79281000D01*
X149651120Y-79262465D01*
X149892589Y-79189216D01*
X150115129Y-79070266D01*
X150310186Y-78910186D01*
X150470266Y-78715129D01*
X150589216Y-78492589D01*
X150662465Y-78251120D01*
X150687198Y-78000000D01*
X150662465Y-77748880D01*
X150589216Y-77507411D01*
X150470266Y-77284871D01*
X150310186Y-77089814D01*
X150115129Y-76929734D01*
X149892589Y-76810784D01*
X149651120Y-76737535D01*
X149462930Y-76719000D01*
X147537070Y-76719000D01*
X147348880Y-76737535D01*
X147107411Y-76810784D01*
X146884871Y-76929734D01*
X146689814Y-77089814D01*
X146529734Y-77284871D01*
X146410784Y-77507411D01*
X146337535Y-77748880D01*
X146312802Y-78000000D01*
X142906000Y-78000000D01*
X142906000Y-69647302D01*
X143919000Y-69647302D01*
X143919000Y-70352698D01*
X144056616Y-71044539D01*
X144326559Y-71696240D01*
X144718456Y-72282754D01*
X145217246Y-72781544D01*
X145803760Y-73173441D01*
X146455461Y-73443384D01*
X147147302Y-73581000D01*
X147852698Y-73581000D01*
X148544539Y-73443384D01*
X149196240Y-73173441D01*
X149782754Y-72781544D01*
X150281544Y-72282754D01*
X150673441Y-71696240D01*
X150943384Y-71044539D01*
X151081000Y-70352698D01*
X151081000Y-69647302D01*
X198919000Y-69647302D01*
X198919000Y-70352698D01*
X199056616Y-71044539D01*
X199326559Y-71696240D01*
X199718456Y-72282754D01*
X200217246Y-72781544D01*
X200803760Y-73173441D01*
X201455461Y-73443384D01*
X202147302Y-73581000D01*
X202852698Y-73581000D01*
X203544539Y-73443384D01*
X204196240Y-73173441D01*
X204782754Y-72781544D01*
X205281544Y-72282754D01*
X205673441Y-71696240D01*
X205943384Y-71044539D01*
X206081000Y-70352698D01*
X206081000Y-69647302D01*
X205943384Y-68955461D01*
X205673441Y-68303760D01*
X205281544Y-67717246D01*
X204782754Y-67218456D01*
X204196240Y-66826559D01*
X203544539Y-66556616D01*
X202852698Y-66419000D01*
X202147302Y-66419000D01*
X201455461Y-66556616D01*
X200803760Y-66826559D01*
X200217246Y-67218456D01*
X199718456Y-67717246D01*
X199326559Y-68303760D01*
X199056616Y-68955461D01*
X198919000Y-69647302D01*
X151081000Y-69647302D01*
X150943384Y-68955461D01*
X150673441Y-68303760D01*
X150281544Y-67717246D01*
X149782754Y-67218456D01*
X149196240Y-66826559D01*
X148544539Y-66556616D01*
X147852698Y-66419000D01*
X147147302Y-66419000D01*
X146455461Y-66556616D01*
X145803760Y-66826559D01*
X145217246Y-67218456D01*
X144718456Y-67717246D01*
X144326559Y-68303760D01*
X144056616Y-68955461D01*
X143919000Y-69647302D01*
X142906000Y-69647302D01*
X142906000Y-65406000D01*
X207094000Y-65406000D01*
X207094001Y-134594000D01*
%TA.AperFunction,Conductor*%
D17*
G36*
X207094001Y-134594000D02*
G01*
X142906000Y-134594000D01*
X142906000Y-129647302D01*
X143919000Y-129647302D01*
X143919000Y-130352698D01*
X144056616Y-131044539D01*
X144326559Y-131696240D01*
X144718456Y-132282754D01*
X145217246Y-132781544D01*
X145803760Y-133173441D01*
X146455461Y-133443384D01*
X147147302Y-133581000D01*
X147852698Y-133581000D01*
X148544539Y-133443384D01*
X149196240Y-133173441D01*
X149782754Y-132781544D01*
X150281544Y-132282754D01*
X150673441Y-131696240D01*
X150943384Y-131044539D01*
X151081000Y-130352698D01*
X151081000Y-129647302D01*
X198919000Y-129647302D01*
X198919000Y-130352698D01*
X199056616Y-131044539D01*
X199326559Y-131696240D01*
X199718456Y-132282754D01*
X200217246Y-132781544D01*
X200803760Y-133173441D01*
X201455461Y-133443384D01*
X202147302Y-133581000D01*
X202852698Y-133581000D01*
X203544539Y-133443384D01*
X204196240Y-133173441D01*
X204782754Y-132781544D01*
X205281544Y-132282754D01*
X205673441Y-131696240D01*
X205943384Y-131044539D01*
X206081000Y-130352698D01*
X206081000Y-129647302D01*
X205943384Y-128955461D01*
X205673441Y-128303760D01*
X205281544Y-127717246D01*
X204782754Y-127218456D01*
X204196240Y-126826559D01*
X203544539Y-126556616D01*
X202852698Y-126419000D01*
X202147302Y-126419000D01*
X201455461Y-126556616D01*
X200803760Y-126826559D01*
X200217246Y-127218456D01*
X199718456Y-127717246D01*
X199326559Y-128303760D01*
X199056616Y-128955461D01*
X198919000Y-129647302D01*
X151081000Y-129647302D01*
X150943384Y-128955461D01*
X150673441Y-128303760D01*
X150281544Y-127717246D01*
X149782754Y-127218456D01*
X149196240Y-126826559D01*
X148544539Y-126556616D01*
X147852698Y-126419000D01*
X147147302Y-126419000D01*
X146455461Y-126556616D01*
X145803760Y-126826559D01*
X145217246Y-127218456D01*
X144718456Y-127717246D01*
X144326559Y-128303760D01*
X144056616Y-128955461D01*
X143919000Y-129647302D01*
X142906000Y-129647302D01*
X142906000Y-115348757D01*
X146019000Y-115348757D01*
X146019000Y-115591243D01*
X146066307Y-115829069D01*
X146159102Y-116053097D01*
X146293820Y-116254717D01*
X146465283Y-116426180D01*
X146666903Y-116560898D01*
X146890931Y-116653693D01*
X147128757Y-116701000D01*
X147371243Y-116701000D01*
X147609069Y-116653693D01*
X147833097Y-116560898D01*
X148034717Y-116426180D01*
X148206180Y-116254717D01*
X148340898Y-116053097D01*
X148433693Y-115829069D01*
X148481000Y-115591243D01*
X148481000Y-115348757D01*
X148559000Y-115348757D01*
X148559000Y-115591243D01*
X148606307Y-115829069D01*
X148699102Y-116053097D01*
X148833820Y-116254717D01*
X149005283Y-116426180D01*
X149206903Y-116560898D01*
X149430931Y-116653693D01*
X149668757Y-116701000D01*
X149911243Y-116701000D01*
X150149069Y-116653693D01*
X150373097Y-116560898D01*
X150574717Y-116426180D01*
X150746180Y-116254717D01*
X150880898Y-116053097D01*
X150973693Y-115829069D01*
X151021000Y-115591243D01*
X151021000Y-115348757D01*
X150973693Y-115110931D01*
X150880898Y-114886903D01*
X150746180Y-114685283D01*
X150574717Y-114513820D01*
X150373097Y-114379102D01*
X150149069Y-114286307D01*
X149911243Y-114239000D01*
X149668757Y-114239000D01*
X149430931Y-114286307D01*
X149206903Y-114379102D01*
X149005283Y-114513820D01*
X148833820Y-114685283D01*
X148699102Y-114886903D01*
X148606307Y-115110931D01*
X148559000Y-115348757D01*
X148481000Y-115348757D01*
X148433693Y-115110931D01*
X148340898Y-114886903D01*
X148206180Y-114685283D01*
X148034717Y-114513820D01*
X147833097Y-114379102D01*
X147609069Y-114286307D01*
X147371243Y-114239000D01*
X147128757Y-114239000D01*
X146890931Y-114286307D01*
X146666903Y-114379102D01*
X146465283Y-114513820D01*
X146293820Y-114685283D01*
X146159102Y-114886903D01*
X146066307Y-115110931D01*
X146019000Y-115348757D01*
X142906000Y-115348757D01*
X142906000Y-110268757D01*
X148559000Y-110268757D01*
X148559000Y-110511243D01*
X148606307Y-110749069D01*
X148699102Y-110973097D01*
X148833820Y-111174717D01*
X149005283Y-111346180D01*
X149206903Y-111480898D01*
X149430931Y-111573693D01*
X149668757Y-111621000D01*
X149911243Y-111621000D01*
X150149069Y-111573693D01*
X150373097Y-111480898D01*
X150482363Y-111407889D01*
X150456004Y-111432064D01*
X150358810Y-111504114D01*
X150277732Y-111549882D01*
X150202785Y-111580110D01*
X150121070Y-111602610D01*
X150021670Y-111621861D01*
X149901580Y-111641424D01*
X149895847Y-111642403D01*
X149760209Y-111666630D01*
X149741689Y-111670414D01*
X149592343Y-111704811D01*
X149566486Y-111711731D01*
X149495173Y-111733528D01*
X149430931Y-111746307D01*
X149206903Y-111839102D01*
X149005283Y-111973820D01*
X148833820Y-112145283D01*
X148699102Y-112346903D01*
X148606307Y-112570931D01*
X148559000Y-112808757D01*
X148559000Y-113051243D01*
X148606307Y-113289069D01*
X148699102Y-113513097D01*
X148833820Y-113714717D01*
X149005283Y-113886180D01*
X149206903Y-114020898D01*
X149430931Y-114113693D01*
X149668757Y-114161000D01*
X149911243Y-114161000D01*
X150149069Y-114113693D01*
X150373097Y-114020898D01*
X150574717Y-113886180D01*
X150746180Y-113714717D01*
X150880898Y-113513097D01*
X150973693Y-113289069D01*
X150986474Y-113224814D01*
X151008268Y-113153511D01*
X151015188Y-113127656D01*
X151049585Y-112978310D01*
X151053369Y-112959790D01*
X151077596Y-112824152D01*
X151078575Y-112818419D01*
X151098138Y-112698329D01*
X151117389Y-112598929D01*
X151139889Y-112517214D01*
X151170117Y-112442267D01*
X151215885Y-112361189D01*
X151287935Y-112263995D01*
X151401663Y-112139994D01*
X152035658Y-111506000D01*
X159453122Y-111506000D01*
X159520091Y-111508418D01*
X159559500Y-111513303D01*
X159583080Y-111518781D01*
X159599460Y-111524609D01*
X159618321Y-111533649D01*
X159647096Y-111550303D01*
X159689659Y-111577199D01*
X159689746Y-111577254D01*
X159742500Y-111610570D01*
X159752779Y-111616836D01*
X159812563Y-111652000D01*
X159829776Y-111661535D01*
X159850242Y-111672191D01*
X159880058Y-111692113D01*
X160022191Y-111750987D01*
X160173078Y-111781000D01*
X160326922Y-111781000D01*
X160477809Y-111750987D01*
X160619942Y-111692113D01*
X160747859Y-111606642D01*
X160856642Y-111497859D01*
X160942113Y-111369942D01*
X161000987Y-111227809D01*
X161031000Y-111076922D01*
X161031000Y-110923078D01*
X161000987Y-110772191D01*
X160942113Y-110630058D01*
X160922191Y-110600242D01*
X160911535Y-110579776D01*
X160902000Y-110562563D01*
X160866836Y-110502779D01*
X160860570Y-110492500D01*
X160827254Y-110439746D01*
X160827199Y-110439659D01*
X160800303Y-110397096D01*
X160783649Y-110368321D01*
X160774609Y-110349460D01*
X160768781Y-110333080D01*
X160763303Y-110309500D01*
X160758418Y-110270091D01*
X160756000Y-110203122D01*
X160756000Y-107524845D01*
X160758447Y-107499999D01*
X160756000Y-107475153D01*
X160756000Y-107475146D01*
X160748678Y-107400807D01*
X160719745Y-107305425D01*
X160672759Y-107217521D01*
X160609527Y-107140473D01*
X160590220Y-107124628D01*
X159171282Y-105705691D01*
X159125629Y-105656617D01*
X159101216Y-105625295D01*
X159088418Y-105604751D01*
X159080953Y-105589042D01*
X159074008Y-105569311D01*
X159065441Y-105537202D01*
X159054363Y-105488084D01*
X159054338Y-105487971D01*
X159040592Y-105427111D01*
X159037758Y-105415425D01*
X159020350Y-105348286D01*
X159014919Y-105329366D01*
X159007983Y-105307363D01*
X159000987Y-105272191D01*
X158942113Y-105130058D01*
X158856642Y-105002141D01*
X158747859Y-104893358D01*
X158619942Y-104807887D01*
X158477809Y-104749013D01*
X158326922Y-104719000D01*
X158173078Y-104719000D01*
X158022191Y-104749013D01*
X157880058Y-104807887D01*
X157752141Y-104893358D01*
X157643358Y-105002141D01*
X157557887Y-105130058D01*
X157499013Y-105272191D01*
X157469000Y-105423078D01*
X157469000Y-105576922D01*
X157499013Y-105727809D01*
X157557887Y-105869942D01*
X157643358Y-105997859D01*
X157752141Y-106106642D01*
X157880058Y-106192113D01*
X158022191Y-106250987D01*
X158057363Y-106257983D01*
X158079366Y-106264919D01*
X158098286Y-106270350D01*
X158165425Y-106287758D01*
X158177111Y-106290592D01*
X158237971Y-106304338D01*
X158238084Y-106304363D01*
X158287202Y-106315441D01*
X158319311Y-106324008D01*
X158339042Y-106330953D01*
X158354751Y-106338418D01*
X158375295Y-106351216D01*
X158406617Y-106375629D01*
X158455691Y-106421282D01*
X159744000Y-107709592D01*
X159744001Y-110203094D01*
X159741581Y-110270090D01*
X159736696Y-110309500D01*
X159731218Y-110333080D01*
X159725390Y-110349460D01*
X159716350Y-110368321D01*
X159699696Y-110397096D01*
X159679328Y-110429328D01*
X159647096Y-110449696D01*
X159618321Y-110466350D01*
X159599460Y-110475390D01*
X159583080Y-110481218D01*
X159559500Y-110486696D01*
X159520090Y-110491581D01*
X159453115Y-110494000D01*
X152005845Y-110494000D01*
X151943414Y-110460629D01*
X151833895Y-110427407D01*
X151719999Y-110416189D01*
X151606104Y-110427407D01*
X151496585Y-110460629D01*
X151395652Y-110514580D01*
X151329351Y-110568991D01*
X150791598Y-111106745D01*
X150880898Y-110973097D01*
X150973693Y-110749069D01*
X151021000Y-110511243D01*
X151021000Y-110268757D01*
X150973693Y-110030931D01*
X150880898Y-109806903D01*
X150746180Y-109605283D01*
X150574717Y-109433820D01*
X150373097Y-109299102D01*
X150149069Y-109206307D01*
X149911243Y-109159000D01*
X149668757Y-109159000D01*
X149430931Y-109206307D01*
X149206903Y-109299102D01*
X149005283Y-109433820D01*
X148833820Y-109605283D01*
X148699102Y-109806903D01*
X148606307Y-110030931D01*
X148559000Y-110268757D01*
X142906000Y-110268757D01*
X142906000Y-107728757D01*
X148559000Y-107728757D01*
X148559000Y-107971243D01*
X148606307Y-108209069D01*
X148699102Y-108433097D01*
X148833820Y-108634717D01*
X149005283Y-108806180D01*
X149206903Y-108940898D01*
X149430931Y-109033693D01*
X149668757Y-109081000D01*
X149911243Y-109081000D01*
X150149069Y-109033693D01*
X150373097Y-108940898D01*
X150574717Y-108806180D01*
X150746180Y-108634717D01*
X150880898Y-108433097D01*
X150973693Y-108209069D01*
X151021000Y-107971243D01*
X151021000Y-107728757D01*
X150973693Y-107490931D01*
X150880898Y-107266903D01*
X150746180Y-107065283D01*
X150574717Y-106893820D01*
X150373097Y-106759102D01*
X150149069Y-106666307D01*
X149911243Y-106619000D01*
X149668757Y-106619000D01*
X149430931Y-106666307D01*
X149206903Y-106759102D01*
X149005283Y-106893820D01*
X148833820Y-107065283D01*
X148699102Y-107266903D01*
X148606307Y-107490931D01*
X148559000Y-107728757D01*
X142906000Y-107728757D01*
X142906000Y-105188757D01*
X148559000Y-105188757D01*
X148559000Y-105431243D01*
X148606307Y-105669069D01*
X148699102Y-105893097D01*
X148833820Y-106094717D01*
X149005283Y-106266180D01*
X149206903Y-106400898D01*
X149430931Y-106493693D01*
X149668757Y-106541000D01*
X149911243Y-106541000D01*
X150149069Y-106493693D01*
X150373097Y-106400898D01*
X150574717Y-106266180D01*
X150746180Y-106094717D01*
X150880898Y-105893097D01*
X150973693Y-105669069D01*
X151021000Y-105431243D01*
X151021000Y-105188757D01*
X150973693Y-104950931D01*
X150880898Y-104726903D01*
X150746180Y-104525283D01*
X150574717Y-104353820D01*
X150373097Y-104219102D01*
X150149069Y-104126307D01*
X149911243Y-104079000D01*
X149668757Y-104079000D01*
X149430931Y-104126307D01*
X149206903Y-104219102D01*
X149005283Y-104353820D01*
X148833820Y-104525283D01*
X148699102Y-104726903D01*
X148606307Y-104950931D01*
X148559000Y-105188757D01*
X142906000Y-105188757D01*
X142906000Y-97090000D01*
X146017157Y-97090000D01*
X146017157Y-98290000D01*
X146029317Y-98413462D01*
X146065329Y-98532179D01*
X146123810Y-98641589D01*
X146202512Y-98737488D01*
X146298411Y-98816190D01*
X146407821Y-98874671D01*
X146526538Y-98910683D01*
X146619001Y-98919790D01*
X146619001Y-99171109D01*
X146465283Y-99273820D01*
X146293820Y-99445283D01*
X146159102Y-99646903D01*
X146066307Y-99870931D01*
X146019000Y-100108757D01*
X146019000Y-100351243D01*
X146066307Y-100589069D01*
X146159102Y-100813097D01*
X146293820Y-101014717D01*
X146465283Y-101186180D01*
X146607697Y-101281338D01*
X146596616Y-101367613D01*
X146573627Y-101463131D01*
X146544573Y-101541994D01*
X146507042Y-101617753D01*
X146457141Y-101701430D01*
X146393346Y-101799887D01*
X146392698Y-101800889D01*
X146319915Y-101913992D01*
X146312896Y-101925332D01*
X146236395Y-102053888D01*
X146226153Y-102072231D01*
X146191765Y-102138019D01*
X146159102Y-102186903D01*
X146066307Y-102410931D01*
X146019000Y-102648757D01*
X146019000Y-102891243D01*
X146066307Y-103129069D01*
X146159102Y-103353097D01*
X146293820Y-103554717D01*
X146465283Y-103726180D01*
X146666903Y-103860898D01*
X146890931Y-103953693D01*
X147128757Y-104001000D01*
X147371243Y-104001000D01*
X147609069Y-103953693D01*
X147833097Y-103860898D01*
X148034717Y-103726180D01*
X148206180Y-103554717D01*
X148340898Y-103353097D01*
X148433693Y-103129069D01*
X148481000Y-102891243D01*
X148481000Y-102648757D01*
X148559000Y-102648757D01*
X148559000Y-102891243D01*
X148606307Y-103129069D01*
X148699102Y-103353097D01*
X148833820Y-103554717D01*
X149005283Y-103726180D01*
X149206903Y-103860898D01*
X149430931Y-103953693D01*
X149668757Y-104001000D01*
X149911243Y-104001000D01*
X150149069Y-103953693D01*
X150373097Y-103860898D01*
X150574717Y-103726180D01*
X150746180Y-103554717D01*
X150880898Y-103353097D01*
X150973693Y-103129069D01*
X151021000Y-102891243D01*
X151021000Y-102648757D01*
X150973693Y-102410931D01*
X150880898Y-102186903D01*
X150746180Y-101985283D01*
X150574717Y-101813820D01*
X150373097Y-101679102D01*
X150149069Y-101586307D01*
X149911243Y-101539000D01*
X149668757Y-101539000D01*
X149430931Y-101586307D01*
X149206903Y-101679102D01*
X149005283Y-101813820D01*
X148833820Y-101985283D01*
X148699102Y-102186903D01*
X148606307Y-102410931D01*
X148559000Y-102648757D01*
X148481000Y-102648757D01*
X148433693Y-102410931D01*
X148340898Y-102186903D01*
X148308233Y-102138016D01*
X148273845Y-102072229D01*
X148263604Y-102053888D01*
X148187103Y-101925332D01*
X148180084Y-101913992D01*
X148107301Y-101800889D01*
X148106653Y-101799887D01*
X148042858Y-101701430D01*
X147992957Y-101617753D01*
X147955426Y-101541994D01*
X147926372Y-101463131D01*
X147903383Y-101367613D01*
X147892302Y-101281338D01*
X148034717Y-101186180D01*
X148206180Y-101014717D01*
X148340898Y-100813097D01*
X148433693Y-100589069D01*
X148481000Y-100351243D01*
X148481000Y-100108757D01*
X148559000Y-100108757D01*
X148559000Y-100351243D01*
X148606307Y-100589069D01*
X148699102Y-100813097D01*
X148833820Y-101014717D01*
X149005283Y-101186180D01*
X149206903Y-101320898D01*
X149430931Y-101413693D01*
X149668757Y-101461000D01*
X149911243Y-101461000D01*
X150149069Y-101413693D01*
X150373097Y-101320898D01*
X150574717Y-101186180D01*
X150746180Y-101014717D01*
X150880898Y-100813097D01*
X150973693Y-100589069D01*
X151021000Y-100351243D01*
X151021000Y-100108757D01*
X150973693Y-99870931D01*
X150880898Y-99646903D01*
X150746180Y-99445283D01*
X150574717Y-99273820D01*
X150373097Y-99139102D01*
X150149069Y-99046307D01*
X149911243Y-98999000D01*
X149668757Y-98999000D01*
X149430931Y-99046307D01*
X149206903Y-99139102D01*
X149005283Y-99273820D01*
X148833820Y-99445283D01*
X148699102Y-99646903D01*
X148606307Y-99870931D01*
X148559000Y-100108757D01*
X148481000Y-100108757D01*
X148433693Y-99870931D01*
X148340898Y-99646903D01*
X148206180Y-99445283D01*
X148034717Y-99273820D01*
X147881000Y-99171110D01*
X147881000Y-98919790D01*
X147973462Y-98910683D01*
X148092179Y-98874671D01*
X148201589Y-98816190D01*
X148297488Y-98737488D01*
X148376190Y-98641589D01*
X148434671Y-98532179D01*
X148470683Y-98413462D01*
X148482843Y-98290000D01*
X148482843Y-97568757D01*
X148559000Y-97568757D01*
X148559000Y-97811243D01*
X148606307Y-98049069D01*
X148699102Y-98273097D01*
X148833820Y-98474717D01*
X149005283Y-98646180D01*
X149206903Y-98780898D01*
X149430931Y-98873693D01*
X149668757Y-98921000D01*
X149911243Y-98921000D01*
X150149069Y-98873693D01*
X150373097Y-98780898D01*
X150574717Y-98646180D01*
X150746180Y-98474717D01*
X150880898Y-98273097D01*
X150973693Y-98049069D01*
X151021000Y-97811243D01*
X151021000Y-97568757D01*
X150973693Y-97330931D01*
X150880898Y-97106903D01*
X150746180Y-96905283D01*
X150574717Y-96733820D01*
X150373097Y-96599102D01*
X150149069Y-96506307D01*
X149911243Y-96459000D01*
X149668757Y-96459000D01*
X149430931Y-96506307D01*
X149206903Y-96599102D01*
X149005283Y-96733820D01*
X148833820Y-96905283D01*
X148699102Y-97106903D01*
X148606307Y-97330931D01*
X148559000Y-97568757D01*
X148482843Y-97568757D01*
X148482843Y-97090000D01*
X148470683Y-96966538D01*
X148434671Y-96847821D01*
X148376190Y-96738411D01*
X148297488Y-96642512D01*
X148201589Y-96563810D01*
X148092179Y-96505329D01*
X148011510Y-96480859D01*
X148461369Y-96031000D01*
X152830630Y-96031000D01*
X159623897Y-102824268D01*
X159643655Y-102848343D01*
X159667730Y-102868101D01*
X159667732Y-102868103D01*
X159698920Y-102893698D01*
X159739737Y-102927196D01*
X159849356Y-102985789D01*
X159968300Y-103021870D01*
X160061000Y-103031000D01*
X160061007Y-103031000D01*
X160091998Y-103034052D01*
X160122988Y-103031000D01*
X161969002Y-103031000D01*
X162000000Y-103034053D01*
X162030998Y-103031000D01*
X168309263Y-103031000D01*
X168393132Y-103031365D01*
X168462159Y-103032682D01*
X168517445Y-103035156D01*
X168560571Y-103038768D01*
X168593860Y-103043330D01*
X168621134Y-103048865D01*
X168647154Y-103056051D01*
X168676743Y-103066375D01*
X168713616Y-103081619D01*
X168716030Y-103082740D01*
X168730058Y-103092113D01*
X168872191Y-103150987D01*
X169023078Y-103181000D01*
X169176922Y-103181000D01*
X169327809Y-103150987D01*
X169469942Y-103092113D01*
X169597859Y-103006642D01*
X169706642Y-102897859D01*
X169792113Y-102769942D01*
X169850987Y-102627809D01*
X169881000Y-102476922D01*
X169881000Y-102323078D01*
X169850987Y-102172191D01*
X169792113Y-102030058D01*
X169706642Y-101902141D01*
X169597859Y-101793358D01*
X169469942Y-101707887D01*
X169327809Y-101649013D01*
X169176922Y-101619000D01*
X169023078Y-101619000D01*
X168872191Y-101649013D01*
X168730058Y-101707887D01*
X168716034Y-101717258D01*
X168713625Y-101718376D01*
X168676743Y-101733624D01*
X168647154Y-101743948D01*
X168621134Y-101751134D01*
X168593860Y-101756669D01*
X168560571Y-101761231D01*
X168517445Y-101764843D01*
X168462159Y-101767317D01*
X168393131Y-101768634D01*
X168309257Y-101769000D01*
X162631000Y-101769000D01*
X162631000Y-101590737D01*
X162631365Y-101506867D01*
X162632682Y-101437840D01*
X162635156Y-101382554D01*
X162638768Y-101339428D01*
X162643330Y-101306139D01*
X162648865Y-101278865D01*
X162656051Y-101252845D01*
X162666375Y-101223256D01*
X162681616Y-101186392D01*
X162682742Y-101183967D01*
X162692113Y-101169942D01*
X162750987Y-101027809D01*
X162781000Y-100876922D01*
X162781000Y-100723078D01*
X162750987Y-100572191D01*
X162692113Y-100430058D01*
X162606642Y-100302141D01*
X162497859Y-100193358D01*
X162369942Y-100107887D01*
X162227809Y-100049013D01*
X162076922Y-100019000D01*
X161923078Y-100019000D01*
X161772191Y-100049013D01*
X161630058Y-100107887D01*
X161502141Y-100193358D01*
X161393358Y-100302141D01*
X161307887Y-100430058D01*
X161249013Y-100572191D01*
X161219000Y-100723078D01*
X161219000Y-100876922D01*
X161249013Y-101027809D01*
X161307887Y-101169942D01*
X161317258Y-101183967D01*
X161318380Y-101186383D01*
X161333624Y-101223256D01*
X161343948Y-101252845D01*
X161351134Y-101278865D01*
X161356669Y-101306139D01*
X161361231Y-101339428D01*
X161364843Y-101382554D01*
X161367317Y-101437840D01*
X161368634Y-101506868D01*
X161369000Y-101590857D01*
X161369001Y-101769000D01*
X160353367Y-101769000D01*
X153560103Y-94975737D01*
X153540341Y-94951657D01*
X153444259Y-94872804D01*
X153334640Y-94814211D01*
X153215696Y-94778130D01*
X153122996Y-94769000D01*
X153122988Y-94769000D01*
X153091998Y-94765948D01*
X153061008Y-94769000D01*
X148230990Y-94769000D01*
X148200000Y-94765948D01*
X148169009Y-94769000D01*
X148169002Y-94769000D01*
X148076302Y-94778130D01*
X147957358Y-94814211D01*
X147847739Y-94872804D01*
X147751657Y-94951657D01*
X147731899Y-94975732D01*
X146825733Y-95881899D01*
X146801658Y-95901657D01*
X146781900Y-95925732D01*
X146781897Y-95925735D01*
X146722804Y-95997740D01*
X146664211Y-96107359D01*
X146628130Y-96226303D01*
X146615948Y-96350000D01*
X146619001Y-96381000D01*
X146619001Y-96460210D01*
X146526538Y-96469317D01*
X146407821Y-96505329D01*
X146298411Y-96563810D01*
X146202512Y-96642512D01*
X146123810Y-96738411D01*
X146065329Y-96847821D01*
X146029317Y-96966538D01*
X146017157Y-97090000D01*
X142906000Y-97090000D01*
X142906000Y-84500000D01*
X170619000Y-84500000D01*
X170619000Y-98000000D01*
X170623445Y-98058028D01*
X170642001Y-98130375D01*
X170674315Y-98197712D01*
X170719144Y-98257451D01*
X176119000Y-104148203D01*
X176119000Y-111360437D01*
X170709150Y-117753896D01*
X170683210Y-117788328D01*
X170648002Y-117854198D01*
X170626321Y-117925671D01*
X170619000Y-118000000D01*
X170619000Y-127000000D01*
X170626321Y-127074329D01*
X170648002Y-127145802D01*
X170683210Y-127211672D01*
X170730592Y-127269408D01*
X170788328Y-127316790D01*
X170854198Y-127351998D01*
X170925671Y-127373679D01*
X171000000Y-127381000D01*
X183500000Y-127381000D01*
X183574329Y-127373679D01*
X183645802Y-127351998D01*
X183711672Y-127316790D01*
X183769408Y-127269408D01*
X183816790Y-127211672D01*
X183851998Y-127145802D01*
X183873679Y-127074329D01*
X183881000Y-127000000D01*
X183881000Y-117500000D01*
X199812802Y-117500000D01*
X199837535Y-117751120D01*
X199910784Y-117992589D01*
X200029734Y-118215129D01*
X200189814Y-118410186D01*
X200384871Y-118570266D01*
X200607411Y-118689216D01*
X200848880Y-118762465D01*
X201037070Y-118781000D01*
X202962930Y-118781000D01*
X203151120Y-118762465D01*
X203392589Y-118689216D01*
X203595047Y-118581000D01*
X203676922Y-118581000D01*
X203827809Y-118550987D01*
X203969942Y-118492113D01*
X204097859Y-118406642D01*
X204206642Y-118297859D01*
X204292113Y-118169942D01*
X204350987Y-118027809D01*
X204381000Y-117876922D01*
X204381000Y-117723078D01*
X204350987Y-117572191D01*
X204292113Y-117430058D01*
X204206642Y-117302141D01*
X204163457Y-117258956D01*
X204162465Y-117248880D01*
X204089216Y-117007411D01*
X203970266Y-116784871D01*
X203810186Y-116589814D01*
X203615129Y-116429734D01*
X203392589Y-116310784D01*
X203151120Y-116237535D01*
X202962930Y-116219000D01*
X201037070Y-116219000D01*
X200848880Y-116237535D01*
X200607411Y-116310784D01*
X200384871Y-116429734D01*
X200189814Y-116589814D01*
X200029734Y-116784871D01*
X199910784Y-117007411D01*
X199837535Y-117248880D01*
X199812802Y-117500000D01*
X183881000Y-117500000D01*
X183881000Y-113350000D01*
X199817157Y-113350000D01*
X199817157Y-114650000D01*
X199829317Y-114773462D01*
X199865329Y-114892179D01*
X199923810Y-115001589D01*
X200002512Y-115097488D01*
X200098411Y-115176190D01*
X200207821Y-115234671D01*
X200326538Y-115270683D01*
X200450000Y-115282843D01*
X203550000Y-115282843D01*
X203673462Y-115270683D01*
X203792179Y-115234671D01*
X203901589Y-115176190D01*
X203997488Y-115097488D01*
X204076190Y-115001589D01*
X204134671Y-114892179D01*
X204170683Y-114773462D01*
X204182843Y-114650000D01*
X204182843Y-113350000D01*
X204170683Y-113226538D01*
X204134671Y-113107821D01*
X204076190Y-112998411D01*
X203997488Y-112902512D01*
X203901589Y-112823810D01*
X203792179Y-112765329D01*
X203673462Y-112729317D01*
X203550000Y-112717157D01*
X200450000Y-112717157D01*
X200326538Y-112729317D01*
X200207821Y-112765329D01*
X200098411Y-112823810D01*
X200002512Y-112902512D01*
X199923810Y-112998411D01*
X199865329Y-113107821D01*
X199829317Y-113226538D01*
X199817157Y-113350000D01*
X183881000Y-113350000D01*
X183881000Y-102000000D01*
X199812802Y-102000000D01*
X199837535Y-102251120D01*
X199910784Y-102492589D01*
X200029734Y-102715129D01*
X200189814Y-102910186D01*
X200384871Y-103070266D01*
X200607411Y-103189216D01*
X200848880Y-103262465D01*
X201037070Y-103281000D01*
X202962930Y-103281000D01*
X203151120Y-103262465D01*
X203392589Y-103189216D01*
X203615129Y-103070266D01*
X203810186Y-102910186D01*
X203970266Y-102715129D01*
X204089216Y-102492589D01*
X204162465Y-102251120D01*
X204187198Y-102000000D01*
X204162465Y-101748880D01*
X204089216Y-101507411D01*
X203970266Y-101284871D01*
X203810186Y-101089814D01*
X203615129Y-100929734D01*
X203392589Y-100810784D01*
X203151120Y-100737535D01*
X202962930Y-100719000D01*
X201037070Y-100719000D01*
X200848880Y-100737535D01*
X200607411Y-100810784D01*
X200384871Y-100929734D01*
X200189814Y-101089814D01*
X200029734Y-101284871D01*
X199910784Y-101507411D01*
X199837535Y-101748880D01*
X199812802Y-102000000D01*
X183881000Y-102000000D01*
X183881000Y-97850000D01*
X199817157Y-97850000D01*
X199817157Y-99150000D01*
X199829317Y-99273462D01*
X199865329Y-99392179D01*
X199923810Y-99501589D01*
X200002512Y-99597488D01*
X200098411Y-99676190D01*
X200207821Y-99734671D01*
X200326538Y-99770683D01*
X200450000Y-99782843D01*
X203550000Y-99782843D01*
X203673462Y-99770683D01*
X203792179Y-99734671D01*
X203901589Y-99676190D01*
X203997488Y-99597488D01*
X204076190Y-99501589D01*
X204134671Y-99392179D01*
X204170683Y-99273462D01*
X204182843Y-99150000D01*
X204182843Y-97850000D01*
X204170683Y-97726538D01*
X204134671Y-97607821D01*
X204076190Y-97498411D01*
X203997488Y-97402512D01*
X203901589Y-97323810D01*
X203792179Y-97265329D01*
X203673462Y-97229317D01*
X203550000Y-97217157D01*
X200450000Y-97217157D01*
X200326538Y-97229317D01*
X200207821Y-97265329D01*
X200098411Y-97323810D01*
X200002512Y-97402512D01*
X199923810Y-97498411D01*
X199865329Y-97607821D01*
X199829317Y-97726538D01*
X199817157Y-97850000D01*
X183881000Y-97850000D01*
X183881000Y-84500000D01*
X183873679Y-84425671D01*
X183851998Y-84354198D01*
X183816790Y-84288328D01*
X183769408Y-84230592D01*
X183711672Y-84183210D01*
X183645802Y-84148002D01*
X183574329Y-84126321D01*
X183500000Y-84119000D01*
X171000000Y-84119000D01*
X170925671Y-84126321D01*
X170854198Y-84148002D01*
X170788328Y-84183210D01*
X170730592Y-84230592D01*
X170683210Y-84288328D01*
X170648002Y-84354198D01*
X170626321Y-84425671D01*
X170619000Y-84500000D01*
X142906000Y-84500000D01*
X142906000Y-78000000D01*
X146312802Y-78000000D01*
X146337535Y-78251120D01*
X146410784Y-78492589D01*
X146529734Y-78715129D01*
X146689814Y-78910186D01*
X146884871Y-79070266D01*
X147107411Y-79189216D01*
X147348880Y-79262465D01*
X147537070Y-79281000D01*
X149462930Y-79281000D01*
X149651120Y-79262465D01*
X149892589Y-79189216D01*
X150115129Y-79070266D01*
X150310186Y-78910186D01*
X150470266Y-78715129D01*
X150589216Y-78492589D01*
X150662465Y-78251120D01*
X150687198Y-78000000D01*
X150662465Y-77748880D01*
X150589216Y-77507411D01*
X150470266Y-77284871D01*
X150310186Y-77089814D01*
X150115129Y-76929734D01*
X149892589Y-76810784D01*
X149651120Y-76737535D01*
X149462930Y-76719000D01*
X147537070Y-76719000D01*
X147348880Y-76737535D01*
X147107411Y-76810784D01*
X146884871Y-76929734D01*
X146689814Y-77089814D01*
X146529734Y-77284871D01*
X146410784Y-77507411D01*
X146337535Y-77748880D01*
X146312802Y-78000000D01*
X142906000Y-78000000D01*
X142906000Y-69647302D01*
X143919000Y-69647302D01*
X143919000Y-70352698D01*
X144056616Y-71044539D01*
X144326559Y-71696240D01*
X144718456Y-72282754D01*
X145217246Y-72781544D01*
X145803760Y-73173441D01*
X146455461Y-73443384D01*
X147147302Y-73581000D01*
X147852698Y-73581000D01*
X148544539Y-73443384D01*
X149196240Y-73173441D01*
X149782754Y-72781544D01*
X150281544Y-72282754D01*
X150673441Y-71696240D01*
X150943384Y-71044539D01*
X151081000Y-70352698D01*
X151081000Y-69647302D01*
X198919000Y-69647302D01*
X198919000Y-70352698D01*
X199056616Y-71044539D01*
X199326559Y-71696240D01*
X199718456Y-72282754D01*
X200217246Y-72781544D01*
X200803760Y-73173441D01*
X201455461Y-73443384D01*
X202147302Y-73581000D01*
X202852698Y-73581000D01*
X203544539Y-73443384D01*
X204196240Y-73173441D01*
X204782754Y-72781544D01*
X205281544Y-72282754D01*
X205673441Y-71696240D01*
X205943384Y-71044539D01*
X206081000Y-70352698D01*
X206081000Y-69647302D01*
X205943384Y-68955461D01*
X205673441Y-68303760D01*
X205281544Y-67717246D01*
X204782754Y-67218456D01*
X204196240Y-66826559D01*
X203544539Y-66556616D01*
X202852698Y-66419000D01*
X202147302Y-66419000D01*
X201455461Y-66556616D01*
X200803760Y-66826559D01*
X200217246Y-67218456D01*
X199718456Y-67717246D01*
X199326559Y-68303760D01*
X199056616Y-68955461D01*
X198919000Y-69647302D01*
X151081000Y-69647302D01*
X150943384Y-68955461D01*
X150673441Y-68303760D01*
X150281544Y-67717246D01*
X149782754Y-67218456D01*
X149196240Y-66826559D01*
X148544539Y-66556616D01*
X147852698Y-66419000D01*
X147147302Y-66419000D01*
X146455461Y-66556616D01*
X145803760Y-66826559D01*
X145217246Y-67218456D01*
X144718456Y-67717246D01*
X144326559Y-68303760D01*
X144056616Y-68955461D01*
X143919000Y-69647302D01*
X142906000Y-69647302D01*
X142906000Y-65406000D01*
X207094000Y-65406000D01*
X207094001Y-134594000D01*
G37*
%TD.AperFunction*%
%TD*%
D19*
%TO.N,VDD*%
X147494574Y-101274746D02*
X147494668Y-101275889D01*
X147515525Y-101438279D01*
X147515775Y-101439633D01*
X147548813Y-101576905D01*
X147549243Y-101578323D01*
X147593051Y-101697237D01*
X147593588Y-101698485D01*
X147646755Y-101805804D01*
X147647227Y-101806671D01*
X147708344Y-101909157D01*
X147708594Y-101909558D01*
X147776227Y-102013939D01*
X147848890Y-102126855D01*
X147925103Y-102254928D01*
X147999512Y-102397278D01*
X147250000Y-103176678D01*
X146500488Y-102397278D01*
X146574896Y-102254928D01*
X146651109Y-102126855D01*
X146723772Y-102013939D01*
X146791405Y-101909558D01*
X146791655Y-101909157D01*
X146852772Y-101806671D01*
X146853244Y-101805804D01*
X146906411Y-101698485D01*
X146906948Y-101697237D01*
X146950756Y-101578323D01*
X146951186Y-101576905D01*
X146984224Y-101439633D01*
X146984474Y-101438279D01*
X147005331Y-101275889D01*
X147005425Y-101274746D01*
X147012234Y-101092700D01*
X147487766Y-101092700D01*
X147494574Y-101274746D01*
%TA.AperFunction,Conductor*%
D17*
G36*
X147494574Y-101274746D02*
G01*
X147494668Y-101275889D01*
X147515525Y-101438279D01*
X147515775Y-101439633D01*
X147548813Y-101576905D01*
X147549243Y-101578323D01*
X147593051Y-101697237D01*
X147593588Y-101698485D01*
X147646755Y-101805804D01*
X147647227Y-101806671D01*
X147708344Y-101909157D01*
X147708594Y-101909558D01*
X147776227Y-102013939D01*
X147848890Y-102126855D01*
X147925103Y-102254928D01*
X147999512Y-102397278D01*
X147250000Y-103176678D01*
X146500488Y-102397278D01*
X146574896Y-102254928D01*
X146651109Y-102126855D01*
X146723772Y-102013939D01*
X146791405Y-101909558D01*
X146791655Y-101909157D01*
X146852772Y-101806671D01*
X146853244Y-101805804D01*
X146906411Y-101698485D01*
X146906948Y-101697237D01*
X146950756Y-101578323D01*
X146951186Y-101576905D01*
X146984224Y-101439633D01*
X146984474Y-101438279D01*
X147005331Y-101275889D01*
X147005425Y-101274746D01*
X147012234Y-101092700D01*
X147487766Y-101092700D01*
X147494574Y-101274746D01*
G37*
%TD.AperFunction*%
%TD*%
D19*
%TO.N,VDD*%
X162344820Y-100976892D02*
X162321112Y-101027952D01*
X162320894Y-101028448D01*
X162298440Y-101082761D01*
X162298186Y-101083429D01*
X162280169Y-101135064D01*
X162279918Y-101135867D01*
X162265857Y-101186780D01*
X162265653Y-101187635D01*
X162255071Y-101239782D01*
X162254935Y-101240584D01*
X162247351Y-101295921D01*
X162247277Y-101296585D01*
X162242212Y-101357066D01*
X162242181Y-101357558D01*
X162239157Y-101425141D01*
X162239146Y-101425467D01*
X162237683Y-101502106D01*
X162237681Y-101502293D01*
X162237355Y-101577300D01*
X161762645Y-101577300D01*
X161762318Y-101502293D01*
X161762316Y-101502106D01*
X161760853Y-101425467D01*
X161760842Y-101425141D01*
X161757818Y-101357558D01*
X161757787Y-101357066D01*
X161752722Y-101296585D01*
X161752648Y-101295921D01*
X161745064Y-101240584D01*
X161744928Y-101239782D01*
X161734346Y-101187635D01*
X161734142Y-101186780D01*
X161720081Y-101135867D01*
X161719830Y-101135064D01*
X161701813Y-101083429D01*
X161701559Y-101082761D01*
X161679105Y-101028448D01*
X161678887Y-101027952D01*
X161655180Y-100976892D01*
X162000000Y-100618322D01*
X162344820Y-100976892D01*
%TA.AperFunction,Conductor*%
D17*
G36*
X162344820Y-100976892D02*
G01*
X162321112Y-101027952D01*
X162320894Y-101028448D01*
X162298440Y-101082761D01*
X162298186Y-101083429D01*
X162280169Y-101135064D01*
X162279918Y-101135867D01*
X162265857Y-101186780D01*
X162265653Y-101187635D01*
X162255071Y-101239782D01*
X162254935Y-101240584D01*
X162247351Y-101295921D01*
X162247277Y-101296585D01*
X162242212Y-101357066D01*
X162242181Y-101357558D01*
X162239157Y-101425141D01*
X162239146Y-101425467D01*
X162237683Y-101502106D01*
X162237681Y-101502293D01*
X162237355Y-101577300D01*
X161762645Y-101577300D01*
X161762318Y-101502293D01*
X161762316Y-101502106D01*
X161760853Y-101425467D01*
X161760842Y-101425141D01*
X161757818Y-101357558D01*
X161757787Y-101357066D01*
X161752722Y-101296585D01*
X161752648Y-101295921D01*
X161745064Y-101240584D01*
X161744928Y-101239782D01*
X161734346Y-101187635D01*
X161734142Y-101186780D01*
X161720081Y-101135867D01*
X161719830Y-101135064D01*
X161701813Y-101083429D01*
X161701559Y-101082761D01*
X161679105Y-101028448D01*
X161678887Y-101027952D01*
X161655180Y-100976892D01*
X162000000Y-100618322D01*
X162344820Y-100976892D01*
G37*
%TD.AperFunction*%
%TD*%
D19*
%TO.N,VDD*%
X169281678Y-102400000D02*
X168923108Y-102744820D01*
X168872047Y-102721112D01*
X168871551Y-102720894D01*
X168817238Y-102698440D01*
X168816570Y-102698186D01*
X168764935Y-102680169D01*
X168764132Y-102679918D01*
X168713219Y-102665857D01*
X168712364Y-102665653D01*
X168660217Y-102655071D01*
X168659415Y-102654935D01*
X168604078Y-102647351D01*
X168603414Y-102647277D01*
X168542933Y-102642212D01*
X168542441Y-102642181D01*
X168474858Y-102639157D01*
X168474532Y-102639146D01*
X168397893Y-102637683D01*
X168397706Y-102637681D01*
X168322700Y-102637355D01*
X168322700Y-102162645D01*
X168397706Y-102162318D01*
X168397893Y-102162316D01*
X168474532Y-102160853D01*
X168474858Y-102160842D01*
X168542441Y-102157818D01*
X168542933Y-102157787D01*
X168603414Y-102152722D01*
X168604078Y-102152648D01*
X168659415Y-102145064D01*
X168660217Y-102144928D01*
X168712364Y-102134346D01*
X168713219Y-102134142D01*
X168764132Y-102120081D01*
X168764935Y-102119830D01*
X168816570Y-102101813D01*
X168817238Y-102101559D01*
X168871551Y-102079105D01*
X168872047Y-102078887D01*
X168923108Y-102055180D01*
X169281678Y-102400000D01*
%TA.AperFunction,Conductor*%
D17*
G36*
X169281678Y-102400000D02*
G01*
X168923108Y-102744820D01*
X168872047Y-102721112D01*
X168871551Y-102720894D01*
X168817238Y-102698440D01*
X168816570Y-102698186D01*
X168764935Y-102680169D01*
X168764132Y-102679918D01*
X168713219Y-102665857D01*
X168712364Y-102665653D01*
X168660217Y-102655071D01*
X168659415Y-102654935D01*
X168604078Y-102647351D01*
X168603414Y-102647277D01*
X168542933Y-102642212D01*
X168542441Y-102642181D01*
X168474858Y-102639157D01*
X168474532Y-102639146D01*
X168397893Y-102637683D01*
X168397706Y-102637681D01*
X168322700Y-102637355D01*
X168322700Y-102162645D01*
X168397706Y-102162318D01*
X168397893Y-102162316D01*
X168474532Y-102160853D01*
X168474858Y-102160842D01*
X168542441Y-102157818D01*
X168542933Y-102157787D01*
X168603414Y-102152722D01*
X168604078Y-102152648D01*
X168659415Y-102145064D01*
X168660217Y-102144928D01*
X168712364Y-102134346D01*
X168713219Y-102134142D01*
X168764132Y-102120081D01*
X168764935Y-102119830D01*
X168816570Y-102101813D01*
X168817238Y-102101559D01*
X168871551Y-102079105D01*
X168872047Y-102078887D01*
X168923108Y-102055180D01*
X169281678Y-102400000D01*
G37*
%TD.AperFunction*%
%TD*%
D19*
%TO.N,Net-(J2-Pad14)*%
X151108850Y-111876791D02*
X150984342Y-112012545D01*
X150983500Y-112013566D01*
X150885525Y-112145733D01*
X150884667Y-112147053D01*
X150815028Y-112270420D01*
X150814310Y-112271913D01*
X150766588Y-112390232D01*
X150766122Y-112391611D01*
X150733901Y-112508633D01*
X150733677Y-112509589D01*
X150710538Y-112629064D01*
X150710471Y-112629437D01*
X150690009Y-112755047D01*
X150665859Y-112890253D01*
X150631631Y-113038863D01*
X150583471Y-113196431D01*
X149502436Y-113217564D01*
X149523569Y-112136529D01*
X149681136Y-112088368D01*
X149829746Y-112054140D01*
X149964952Y-112029990D01*
X150090562Y-112009528D01*
X150090935Y-112009461D01*
X150210410Y-111986322D01*
X150211366Y-111986098D01*
X150328388Y-111953877D01*
X150329767Y-111953411D01*
X150448086Y-111905689D01*
X150449579Y-111904971D01*
X150572946Y-111835332D01*
X150574266Y-111834474D01*
X150706433Y-111736499D01*
X150707454Y-111735657D01*
X150843209Y-111611150D01*
X151108850Y-111876791D01*
%TA.AperFunction,Conductor*%
D17*
G36*
X151108850Y-111876791D02*
G01*
X150984342Y-112012545D01*
X150983500Y-112013566D01*
X150885525Y-112145733D01*
X150884667Y-112147053D01*
X150815028Y-112270420D01*
X150814310Y-112271913D01*
X150766588Y-112390232D01*
X150766122Y-112391611D01*
X150733901Y-112508633D01*
X150733677Y-112509589D01*
X150710538Y-112629064D01*
X150710471Y-112629437D01*
X150690009Y-112755047D01*
X150665859Y-112890253D01*
X150631631Y-113038863D01*
X150583471Y-113196431D01*
X149502436Y-113217564D01*
X149523569Y-112136529D01*
X149681136Y-112088368D01*
X149829746Y-112054140D01*
X149964952Y-112029990D01*
X150090562Y-112009528D01*
X150090935Y-112009461D01*
X150210410Y-111986322D01*
X150211366Y-111986098D01*
X150328388Y-111953877D01*
X150329767Y-111953411D01*
X150448086Y-111905689D01*
X150449579Y-111904971D01*
X150572946Y-111835332D01*
X150574266Y-111834474D01*
X150706433Y-111736499D01*
X150707454Y-111735657D01*
X150843209Y-111611150D01*
X151108850Y-111876791D01*
G37*
%TD.AperFunction*%
%TD*%
D19*
%TO.N,Net-(J2-Pad14)*%
X160431678Y-111000000D02*
X160073418Y-111344522D01*
X160011880Y-111312482D01*
X159952541Y-111277580D01*
X159899968Y-111244378D01*
X159851143Y-111213525D01*
X159850721Y-111213269D01*
X159802714Y-111185484D01*
X159801841Y-111185023D01*
X159751553Y-111160921D01*
X159750321Y-111160409D01*
X159694646Y-111140599D01*
X159693263Y-111140193D01*
X159629096Y-111125287D01*
X159627784Y-111125054D01*
X159552023Y-111115662D01*
X159550919Y-111115574D01*
X159472700Y-111112750D01*
X159472700Y-110887250D01*
X159550919Y-110884425D01*
X159552023Y-110884337D01*
X159627784Y-110874945D01*
X159629096Y-110874712D01*
X159693263Y-110859806D01*
X159694646Y-110859400D01*
X159750321Y-110839590D01*
X159751553Y-110839078D01*
X159801841Y-110814976D01*
X159802714Y-110814515D01*
X159850721Y-110786730D01*
X159851143Y-110786474D01*
X159899968Y-110755621D01*
X159952541Y-110722419D01*
X160011880Y-110687517D01*
X160073418Y-110655478D01*
X160431678Y-111000000D01*
%TA.AperFunction,Conductor*%
D17*
G36*
X160431678Y-111000000D02*
G01*
X160073418Y-111344522D01*
X160011880Y-111312482D01*
X159952541Y-111277580D01*
X159899968Y-111244378D01*
X159851143Y-111213525D01*
X159850721Y-111213269D01*
X159802714Y-111185484D01*
X159801841Y-111185023D01*
X159751553Y-111160921D01*
X159750321Y-111160409D01*
X159694646Y-111140599D01*
X159693263Y-111140193D01*
X159629096Y-111125287D01*
X159627784Y-111125054D01*
X159552023Y-111115662D01*
X159550919Y-111115574D01*
X159472700Y-111112750D01*
X159472700Y-110887250D01*
X159550919Y-110884425D01*
X159552023Y-110884337D01*
X159627784Y-110874945D01*
X159629096Y-110874712D01*
X159693263Y-110859806D01*
X159694646Y-110859400D01*
X159750321Y-110839590D01*
X159751553Y-110839078D01*
X159801841Y-110814976D01*
X159802714Y-110814515D01*
X159850721Y-110786730D01*
X159851143Y-110786474D01*
X159899968Y-110755621D01*
X159952541Y-110722419D01*
X160011880Y-110687517D01*
X160073418Y-110655478D01*
X160431678Y-111000000D01*
G37*
%TD.AperFunction*%
%TD*%
D19*
%TO.N,Net-(J2-Pad14)*%
X160365574Y-110300919D02*
X160365662Y-110302023D01*
X160375054Y-110377784D01*
X160375287Y-110379096D01*
X160390193Y-110443263D01*
X160390599Y-110444646D01*
X160410409Y-110500321D01*
X160410921Y-110501553D01*
X160435023Y-110551841D01*
X160435484Y-110552714D01*
X160463269Y-110600721D01*
X160463525Y-110601143D01*
X160494378Y-110649968D01*
X160527580Y-110702541D01*
X160562482Y-110761880D01*
X160594522Y-110823418D01*
X160250000Y-111181678D01*
X159905478Y-110823418D01*
X159937517Y-110761880D01*
X159972419Y-110702541D01*
X160005619Y-110649971D01*
X160036474Y-110601143D01*
X160036730Y-110600721D01*
X160064515Y-110552714D01*
X160064976Y-110551841D01*
X160089078Y-110501553D01*
X160089590Y-110500321D01*
X160109400Y-110444646D01*
X160109806Y-110443263D01*
X160124712Y-110379096D01*
X160124945Y-110377784D01*
X160134337Y-110302023D01*
X160134425Y-110300919D01*
X160137250Y-110222700D01*
X160362750Y-110222700D01*
X160365574Y-110300919D01*
%TA.AperFunction,Conductor*%
D17*
G36*
X160365574Y-110300919D02*
G01*
X160365662Y-110302023D01*
X160375054Y-110377784D01*
X160375287Y-110379096D01*
X160390193Y-110443263D01*
X160390599Y-110444646D01*
X160410409Y-110500321D01*
X160410921Y-110501553D01*
X160435023Y-110551841D01*
X160435484Y-110552714D01*
X160463269Y-110600721D01*
X160463525Y-110601143D01*
X160494378Y-110649968D01*
X160527580Y-110702541D01*
X160562482Y-110761880D01*
X160594522Y-110823418D01*
X160250000Y-111181678D01*
X159905478Y-110823418D01*
X159937517Y-110761880D01*
X159972419Y-110702541D01*
X160005619Y-110649971D01*
X160036474Y-110601143D01*
X160036730Y-110600721D01*
X160064515Y-110552714D01*
X160064976Y-110551841D01*
X160089078Y-110501553D01*
X160089590Y-110500321D01*
X160109400Y-110444646D01*
X160109806Y-110443263D01*
X160124712Y-110379096D01*
X160124945Y-110377784D01*
X160134337Y-110302023D01*
X160134425Y-110300919D01*
X160137250Y-110222700D01*
X160362750Y-110222700D01*
X160365574Y-110300919D01*
G37*
%TD.AperFunction*%
%TD*%
D19*
%TO.N,Net-(J2-Pad14)*%
X158618477Y-105381250D02*
X158639335Y-105447418D01*
X158656605Y-105514023D01*
X158670310Y-105574704D01*
X158683018Y-105631048D01*
X158683136Y-105631528D01*
X158697435Y-105685120D01*
X158697726Y-105686063D01*
X158716242Y-105738666D01*
X158716751Y-105739899D01*
X158742112Y-105793274D01*
X158742804Y-105794539D01*
X158777636Y-105850452D01*
X158778398Y-105851544D01*
X158825329Y-105911756D01*
X158826048Y-105912599D01*
X158879361Y-105969906D01*
X158719906Y-106129361D01*
X158662599Y-106076048D01*
X158661756Y-106075329D01*
X158601544Y-106028398D01*
X158600452Y-106027636D01*
X158544539Y-105992804D01*
X158543274Y-105992112D01*
X158489899Y-105966751D01*
X158488666Y-105966242D01*
X158436063Y-105947726D01*
X158435120Y-105947435D01*
X158381528Y-105933136D01*
X158381048Y-105933018D01*
X158324704Y-105920310D01*
X158264023Y-105906605D01*
X158197418Y-105889335D01*
X158131250Y-105868477D01*
X158121535Y-105371535D01*
X158618477Y-105381250D01*
%TA.AperFunction,Conductor*%
D17*
G36*
X158618477Y-105381250D02*
G01*
X158639335Y-105447418D01*
X158656605Y-105514023D01*
X158670310Y-105574704D01*
X158683018Y-105631048D01*
X158683136Y-105631528D01*
X158697435Y-105685120D01*
X158697726Y-105686063D01*
X158716242Y-105738666D01*
X158716751Y-105739899D01*
X158742112Y-105793274D01*
X158742804Y-105794539D01*
X158777636Y-105850452D01*
X158778398Y-105851544D01*
X158825329Y-105911756D01*
X158826048Y-105912599D01*
X158879361Y-105969906D01*
X158719906Y-106129361D01*
X158662599Y-106076048D01*
X158661756Y-106075329D01*
X158601544Y-106028398D01*
X158600452Y-106027636D01*
X158544539Y-105992804D01*
X158543274Y-105992112D01*
X158489899Y-105966751D01*
X158488666Y-105966242D01*
X158436063Y-105947726D01*
X158435120Y-105947435D01*
X158381528Y-105933136D01*
X158381048Y-105933018D01*
X158324704Y-105920310D01*
X158264023Y-105906605D01*
X158197418Y-105889335D01*
X158131250Y-105868477D01*
X158121535Y-105371535D01*
X158618477Y-105381250D01*
G37*
%TD.AperFunction*%
%TD*%
M02*
